<svg xmlns="http://www.w3.org/2000/svg" width="35.318" height="35.318" viewBox="0 0 35.318 35.318"><path d="M23.71 34.69c-.172.06-.345.136-.522.167-.678.12-1.112-.23-1.116-.922-.01-1.287-.01-2.572.012-3.86.022-1.48-.012-2.94-1.14-4.16.67-.12 1.267-.205 1.85-.34 3.862-.886 5.868-3.322 6.124-7.365.13-2.058-.236-3.946-1.604-5.567-.1-.114-.104-.373-.057-.54.364-1.34.258-2.648-.166-3.958-.1-.327-.27-.428-.6-.407-1.13.063-2.17.46-3.09 1.073-.88.6-1.7.73-2.75.49-2.31-.52-4.63-.37-6.94.17-.26.06-.61-.02-.85-.16-1.08-.63-2.16-1.25-3.41-1.492-.96-.187-1.05-.14-1.3.794-.32 1.176-.35 2.353-.02 3.536.047.17-.002.446-.117.573-2.556 2.854-1.63 8.245.093 10.31 1.34 1.604 3.12 2.326 5.094 2.7.342.065.685.114 1.03.174-.297.77-.563 1.498-.864 2.213-.06.14-.246.255-.4.313-1.937.75-3.603.2-4.712-1.56-.59-.94-1.352-1.64-2.486-1.844-.04-.008-.076-.027-.11-.02-.303.08-.605.162-.91.244.17.24.29.56.52.7.96.61 1.588 1.476 2 2.5.65 1.603 1.91 2.32 3.547 2.46.8.063 1.606.01 2.48.01 0 .994.037 2.13-.014 3.263-.025.61-.64.85-1.372.6-1.95-.664-3.755-1.62-5.31-2.96C.96 26.97-1.21 20.84.66 13.663 2.523 6.503 7.383 2.113 14.65.74c10.06-1.904 19.586 5.42 20.584 15.63.788 8.048-3.95 15.58-11.523 18.32zm-9.48-8.84l-.017.038.055.01c.014 0 .026.025-.04-.048zm-4.55 3.18c.156.098.306.22.476.274.062.02.177-.12.38-.27-.282-.108-.448-.202-.623-.226-.068-.008-.156.145-.234.223zm1.432.247c.023.105.232.236.355.234.12 0 .235-.16.354-.25l-.54-.49c-.07.21-.19.38-.16.51zm1.758-.423c-.148.035-.273.172-.408.266.08.1.158.193.285.35l.414-.38c-.1-.086-.21-.254-.29-.236zm-4.358-.593c.082.16.21.29.38.51.116-.19.24-.33.22-.36-.11-.14-.258-.26-.404-.36-.01 0-.213.19-.196.22z"/></svg>