<svg width="64" xmlns="http://www.w3.org/2000/svg" height="64" viewBox="0 0 64 64">
  <g fill="#EAEAEA">
    <path d="M60.135 3.875c-5.156-5.166-13.545-5.168-18.697 0L29.862 15.494c-.788.791-.788 2.074 0 2.865.79.792 2.067.792 2.856 0L44.294 6.741c3.578-3.589 9.401-3.587 12.984 0 3.578 3.591 3.578 9.435 0 13.024L41.986 35.104c-1.732 1.739-4.038 2.697-6.49 2.697-2.451 0-4.758-.959-6.492-2.697-.789-.792-2.067-.792-2.857 0-.788.791-.788 2.074 0 2.865 2.499 2.505 5.818 3.885 9.35 3.885s6.848-1.381 9.347-3.885l15.292-15.338c5.152-5.17 5.152-13.584-.001-18.756z"/>
    <path d="M31.015 45.904L19.703 57.25c-1.732 1.739-4.039 2.697-6.491 2.697-2.451 0-4.759-.958-6.489-2.697-3.578-3.591-3.578-9.434 0-13.023l15.289-15.338c3.582-3.588 9.406-3.588 12.983 0 .789.793 2.067.793 2.856 0 .789-.791.789-2.072 0-2.864-5.152-5.17-13.541-5.17-18.697 0L3.866 41.361c-5.155 5.17-5.155 13.584 0 18.754C6.363 62.621 9.682 64 13.212 64c3.531 0 6.853-1.379 9.348-3.885L33.87 48.77c.79-.791.79-2.074 0-2.865-.788-.792-2.067-.792-2.855-.001z"/>
  </g>
</svg>