<svg xmlns="http://www.w3.org/2000/svg" 	width='200'
	height='200'
	viewBox='0 0 700 844'>
	<style>
		<![CDATA[
		.r11-pro-svg-second,
		.r11-pro-svg-first{
			fill: #fe0000;
		}
		.r11-pro-svg-R{
			fill: #000;
		}


		]]>
	</style>
	<path class='r11-pro-svg-second' d="M361.31357 744.24134c-.35206-19.85847-.61844-80.38029-.59196-134.49293.0265-54.11263.0384-100.0548.0264-102.0937l-.0218-3.7071-45.86538.0538c-32.0684.0376-46.17038-.27044-46.87928-1.02409-.98052-1.04239 2.10011-4.53875 10.28557-11.67364 1.48188-1.29169 7.5222-7.27257 13.42293-13.29085 42.12479-42.96404 55.33883-56.20749 57.59504-57.72325 1.41811-.95273 4.00173-3.32026 5.74138-5.26122 1.73967-1.94094 3.73378-3.52898 4.43138-3.52898 1.0557 0 1.26867-10.35113 1.27027-61.7376.00075-33.95568.27732-73.31652.61392-87.46854l.61201-25.73095 12.6802 11.8198c6.97412 6.5009 17.27894 16.0875 22.89962 21.30355 5.62067 5.21606 12.79003 11.91881 15.93189 14.89501 3.14186 2.97619 9.56326 8.93619 14.26978 13.24442l8.55728 7.83317v203.94401c0 112.16922-.34114 203.94402-.75806 203.94402-.41694 0-3.8865 2.98849-7.71012 6.6411-3.82364 3.6526-8.06105 7.52657-9.41647 8.60883-1.35543 1.08225-13.52397 12.22705-27.04119 24.76622-13.51724 12.53918-25.665 23.69551-26.99504 24.79186l-2.41827 1.99336-.6401-36.10631zm-14.58118 28.6554c-10.50378-9.49991-31.9047-29.17447-36.33139-33.40064-2.33788-2.23197-8.65873-8.24718-14.04635-13.36716l-9.79567-9.30905-.24043-59.62331-.24043-59.62332-3.02479-2.24855c-1.66363-1.23669-3.85744-3.05384-4.87511-4.03811-1.01768-.98426-3.74647-2.9503-6.06399-4.36896-2.31752-1.41868-4.42358-2.88601-4.68013-3.26073-.25655-.37474-4.03488-3.26717-8.39629-6.42762-4.36141-3.16047-10.44872-7.62442-13.52736-9.91992-3.07864-2.2955-10.21548-7.48985-15.85965-11.54302-5.64418-4.05318-19.06603-13.82067-29.82635-21.70554-10.7603-7.88489-20.0764-14.33614-20.70243-14.33614-.62602 0-1.39906.44507-1.71786.98906-.52191.89058.21411 27.23811 2.23979 80.17989.3934 10.2814.61606 18.8355.49479 19.00913-.12125.17362-6.03313-5.21595-13.13751-11.97684-7.10437-6.76089-14.74038-13.98677-16.96891-16.05753-4.87205-4.52715-14.25577-13.28826-19.32195-18.03994-2.0245-1.89882-9.91947-9.42539-17.5444-16.72573-7.62492-7.30032-15.251566-14.40454-16.94808-15.78715-1.69652-1.38261-4.296959-3.81768-5.778766-5.41126-3.503462-3.76776-25.087271-24.0901-27.399266-25.79792-.979731-.7237-1.781327-2.01303-1.781327-2.86517 0-1.49108 6.092923-7.9721 12.312812-13.09706 5.176175-4.26498 17.537685-15.76366 43.919587-40.85397 6.27242-5.96533 14.34309-13.46746 17.93483-16.67143 3.59175-3.20394 8.62952-7.87329 11.19506-10.37632 2.56553-2.50303 5.5701-5.1839 6.67681-5.9575 1.10672-.7736 6.3544-5.55421 11.66151-10.6236 5.30712-5.06938 12.56913-11.93184 16.13779-15.24992 3.56867-3.31808 9.65598-9.0527 13.52735-12.74361 7.28204-6.94256 13.32825-12.59834 20.56624-19.2382 2.30898-2.11817 8.68993-7.99331 14.17988-13.05587 5.48995-5.06255 14.30605-13.17122 19.59134-18.01927 8.35546-7.66424 19.02434-17.72254 37.85171-35.68545 2.7055-2.58127 5.4343-4.86994 6.06399-5.08593.62971-.21599 6.24143-5.3075 12.47051-11.31446 6.22908-6.00696 13.54738-12.91407 16.26289-15.34914 2.71552-2.43507 8.11436-7.48607 11.99744-11.22445 10.60623-10.21098 13.27069-12.65306 16.95498-15.53987l3.3644-2.63615.59492 8.05913c.3272 4.43253.59744 42.86202.60051 85.39887l.005 77.33974-7.83218 7.76468c-4.30771 4.27058-12.18219 12.19209-17.49887 17.60335-40.75689 41.48203-53.33401 54.07149-56.45092 56.50638-1.96917 1.53829-6.23333 5.65661-9.4759 9.15182-5.45475 5.87974-5.87329 6.64206-5.59753 10.19494l.29806 3.84002 48.27866.25482 48.27867.25482-.003 118.30104c-.003 110.93452-.46008 149.36182-1.77556 149.24269-.30449-.0275-3.28243-2.51813-6.61762-5.53457zm-96.09087-303.37379c2.30898-2.49686 7.13685-8.25264 10.72859-12.79062 3.59175-4.53798 7.47503-9.28675 8.62952-10.55283 1.15449-1.26609 2.09908-2.52251 2.09908-2.79204 0-.26954 1.43521-2.13106 3.18937-4.13671 1.75416-2.00565 4.16448-4.97486 5.35626-6.59824 1.19179-1.62337 2.8457-3.6157 3.67536-4.42739.82966-.81169 4.03436-4.79635 7.12155-8.8548 3.08719-4.05845 6.48139-8.1997 7.54267-9.20277 3.61135-3.41334 3.41785-6.54932-1.05056-17.02591-2.27134-5.32533-6.12978-14.55257-8.57433-20.50496-7.53287-18.34227-9.84303-23.12085-11.17757-23.12085-.7069 0-2.67958 1.44624-4.38372 3.21386-4.5603 4.73023-24.12697 27.00236-28.72541 32.69725-2.18472 2.70563-5.07895 6.04371-6.43165 7.41796-1.35269 1.37424-7.2873 8.22136-13.18803 15.2158-5.90072 6.99445-11.87009 13.89353-13.26526 15.3313-1.39516 1.43776-5.11632 5.88053-8.26923 9.87279-3.15291 3.99226-6.07251 7.39495-6.488 7.56153-.41549.16659-4.00819 4.37262-7.98378 9.34673-3.97557 4.97412-8.62563 10.53325-10.33345 12.35362-2.58864 2.75927-3.1051 4.04254-3.1051 7.71531v4.40553l35.21777-.29241 35.21778-.29238 4.19814-4.53976zm192.51095 41.73507c.10543-151.36503.39584-197.3357 1.25237-198.23899.86485-.91208 3.48187.88619 11.66151 8.01317 5.80052 5.05403 12.57537 11.20603 15.05523 13.67109 2.47985 2.46507 5.20703 4.89699 6.0604 5.40427.85336.50727 3.02254 2.32653 4.82039 4.04281 3.66004 3.49398 24.31945 22.98466 30.78996 29.04823 2.30902 2.16374 7.03169 6.6331 10.49484 9.93191 3.46316 3.2988 8.92074 8.20836 12.12798 10.91013 3.20723 2.70176 7.75011 6.73908 10.09525 8.97182 2.34514 2.23274 6.52365 6.05186 9.28547 8.48693 8.26665 7.28857 22.80769 21.20921 33.09661 31.68459 3.59176 3.65682 8.4643 8.09609 10.8278 9.86504 4.31845 3.23207 7.01623 5.64738 23.07099 20.65499 4.79051 4.47799 9.44108 8.58736 10.33475 9.13193.89359.54456 2.26364 1.65141 3.04453 2.45966.78082.80825 7.00818 6.78243 13.8385 13.27594l12.41882 11.8064-61.90565.25305c-48.10277.19663-62.0698.52569-62.64194 1.4758-.40496.6725-.74275 25.4329-.75059 55.02309l-.0142 53.80036-9.11613 8.67514c-5.01389 4.77134-12.0458 11.38152-15.62643 14.6893-3.5807 3.30779-14.0707 13.04806-23.31115 21.64505-9.24044 8.59701-21.83487 20.2671-27.98763 25.93355-6.15274 5.66645-12.50802 11.68528-14.12283 13.37518l-2.93602 3.07253.13725-197.06297zm18.41576 163.52269l-2.12777-2.38858 1.95353-1.10258c1.07444-.60644 1.95354-1.75113 1.95354-2.54379 0-2.00246-1.26971-1.79888-3.26224.52308-1.31143 1.52825-1.97282 1.71285-2.97962.83165-1.07582-.9416-.86675-1.60295 1.23974-3.92173 1.39359-1.53401 2.26097-3.07685 1.92751-3.42852-.79635-.83983-7.18752 4.31795-7.18752 5.80044 0 2.03591 8.69933 10.63425 9.69585 9.58331.5977-.63034.17728-1.79254-1.21302-3.35328zm12.00861-6.42759c2.21395-4.3627.15818-6.71757-4.30281-4.92888-1.34947.54109-2.6635.76243-2.92005.49187-.25656-.27057.66656-.94624 2.05137-1.50149 2.37038-.95043 2.59166-2.98097.32487-2.98097-1.71903 0-4.44977 3.13142-4.44977 5.10269 0 2.49329 2.42646 3.31089 5.19259 1.74964 1.24739-.70402 2.53277-1.0008 2.85639-.65949.32364.3413-.51536 1.15094-1.86443 1.79918-3.08512 1.48244-3.15817 2.83051-.15338 2.83051 1.31861 0 2.71142-.81176 3.26523-1.90306zm4.69743-4.92593c0-.5092-.41982-1.19944-.93292-1.53387-1.91967-1.25121-.83704-2.39025 1.75269-1.84403 3.83441.80876 4.60413-1.33673.84609-2.35834-2.12751-.57836-3.15645-1.49271-3.36336-2.98882-.42034-3.03926-1.85282-2.68197-2.20545.55009l-.2952 2.70563-2.09907-2.2137c-2.06114-2.17369-3.96491-2.89853-3.96491-1.50959 0 .968 8.6159 10.11842 9.52737 10.11842.40411 0 .73476-.41661.73476-.92579zm13.06089-12.79358c0-.51101-1.46734-2.61402-3.26076-4.67337-3.48852-4.00576-3.79713-4.76014-2.33676-5.71198 1.21368-.79106 1.20437-2.45966-.0137-2.45966-1.58613 0-7.9611 6.67565-7.17084 7.50906.40643.42862 1.50441.27518 2.43996-.341 1.43705-.94645 2.25608-.5208 5.27797 2.74289 3.55398 3.83835 5.06414 4.71331 5.06414 2.93406zm7.62119-6.20392c1.85316-1.57469 2.80757-4.44861 1.71411-5.16133-.46496-.30306-1.30101.34688-1.85793 1.44428-.55691 1.09741-1.70605 1.99529-2.55366 1.99529-1.20362 0-.9926-.60378.96359-2.7571 1.9454-2.14145 2.25521-3.02021 1.38737-3.93547-3.24099-3.41792-9.48497 1.3532-7.32953 5.6006 1.86469 3.67447 5.21694 4.90328 7.67605 2.81373zm-5.75535-5.4787c0-1.18904 1.76994-2.57535 2.41692-1.89305.23482.24764-.21293 1.01029-.99499 1.69478-.88663.77603-1.42193.85068-1.42193.19827zm14.66514-2.96738l1.95517-2.78886-2.75995-3.11434c-1.5179-1.71289-3.29515-3.11434-3.94931-3.11434-1.74421 0-5.54597 4.59614-4.82262 5.83036.89336 1.52443 2.37491 1.29921 2.37491-.36102 0-.77976.44781-1.70957.99502-2.06626 1.79555-1.17028 1.98326.31277.36862 2.91161-1.27833 2.0575-1.3608 2.83401-.42683 4.02083 1.77249 2.25229 4.10628 1.76132 6.26499-1.31798zm-4.37331-.35064c-.0164-.91503.41809-1.95553.96531-2.31223 1.64433-1.07175 1.87487.058.42444 2.08001-1.19414 1.66458-1.36371 1.69292-1.38975.23222zm9.2995-4.34344c0-.32773-1.07315-1.94093-2.38484-3.58488-3.31262-4.15184-1.49842-6.13797 2.19654-2.40467 1.44252 1.45748 2.9146 2.64996 3.27135 2.64996 1.32937 0 .58505-2.70733-1.2172-4.4274-2.06609-1.9719-2.48247-4.4274-.75075-4.4274.61334 0 2.2882 1.18525 3.72199 2.63391 3.91938 3.96009 4.45152 1.78341.56579-2.31451-3.60025-3.79686-6.1072-3.91349-6.99683-.3255-.26622 1.07344-.79507 1.74896-1.17526 1.50115-.38018-.24779-1.66955.64773-2.86533 1.99007l-2.17408 2.44061 3.15439 3.43226c2.94079 3.19983 4.65423 4.24404 4.65423 2.8364z"/>
	<path fill="#fe0000" d="M335.29515 761.85193c-9.08215-8.29951-23.5763-21.73528-32.20923-29.85726l-15.69623-14.76726-.0883-18.05349c-.0486-9.92942-.37649-37.03015-.7288-60.22386l-.64052-42.17038-6.88742-5.20241c-17.3279-13.08861-79.48753-58.43054-92.03555-67.13472-10.5332-7.30658-10.91704-7.00474-10.17196 7.99905 1.04061 20.95498 2.79796 81.74724 2.42788 83.98862-.30834 1.86753-2.37142.2604-14.96316-11.65623-38.35305-36.29673-81.482368-76.96825-91.192939-85.99617-5.920131-5.50394-10.873341-10.53069-11.007135-11.17056-.344679-1.64841 4.626344-6.97653 15.266895-16.3636 5.057536-4.46173 17.760518-16.19876 28.228849-26.08227 10.46833-9.88352 26.18696-24.52666 34.93028-32.54032 8.74333-8.01366 26.31947-24.33962 39.05809-36.27992 12.73863-11.9403 35.50011-33.10066 50.58109-47.02304 15.08097-13.92238 34.41369-31.92297 42.96159-40.00132 8.5479-8.07835 17.07152-15.9291 18.94138-17.4461 1.86985-1.517 12.98504-11.77553 24.70042-22.79673 33.09412-31.13318 35.72141-33.42717 36.63483-31.98714.44086.69504.80827 38.8559.81645 84.80191l.0149 83.5382-48.08196 48.40229-48.08196 48.40229v8.58345h43.5753c23.96641 0 45.60329.27797 48.08196.61771l4.50666.61771-.009 127.358c-.008 118.38013-.2628 137.57658-1.82673 137.54539-.32597-.007-8.02376-6.80234-17.10591-15.10184zm-83.9685-292.56229c4.35954-4.7695 25.23035-30.38934 39.68756-48.71823 2.35769-2.98907 5.7957-7.13091 7.64002-9.20407 2.94104-3.30594 3.29717-4.26134 2.89661-7.77082-.4306-3.77276-14.60249-39.14918-19.7626-49.33218-3.76837-7.4365-3.33995-7.71056-23.09398 14.77307-11.58515 13.18599-49.83416 57.43824-54.90423 63.52155-1.9321 2.31821-8.93875 10.67605-15.57034 18.57297-11.15873 13.28783-12.09106 14.70779-12.50833 19.0505l-.4509 4.69248h70.96098l5.10521-5.58527z"/>
	<path class='r11-pro-svg-first' d="M361.86526 766.03788c-.0781-7.07873-.40598-69.03889-.72851-137.68924l-.58643-124.81882h-27.19787c-42.31591 0-64.59592-.41887-64.58442-1.21419.0126-.8681 75.19771-76.66624 84.98282-85.67569l6.79947-6.26047.657-85.86201c.36135-47.2241.83697-86.04197 1.05692-86.26193.21996-.21996 16.86228 14.92965 36.98292 33.6658l36.58299 34.06572-.12695 196.878c-.0698 108.28291-.39766 199.96652-.72852 203.74138l-.60155 6.86337-7.81244 7.22125c-29.03639 26.83912-63.5296 58.21725-63.99679 58.21725-.3061 0-.62049-5.79169-.69864-12.87042z"/>
	<path class='r11-pro-svg-R' d="M336.13865 762.63568c-8.61822-7.87874-23.08191-21.2802-32.14153-29.78102l-16.47203-15.45604-.64044-42.82512c-.35223-23.55382-.64095-50.57164-.64161-60.03959l-.001-17.21445-5.58528-4.37115c-15.22577-11.91596-92.97009-68.35663-98.20636-71.29565-5.64828-3.1703-6.19132-2.18497-5.53682 10.04639.90475 16.90823 2.72396 82.47157 2.3513 84.7398-.30963 1.88462-2.17451.4588-13.97515-10.68488-7.48981-7.07283-33.49778-31.58016-57.79548-54.4607-24.297709-22.88055-44.578891-42.1693-45.069296-42.86387-1.291118-1.82866 1.916192-5.47498 15.947612-18.1305 6.67805-6.02322 19.354203-17.75499 28.169224-26.07061 16.91147-15.95338 40.8946-38.27693 49.05849-45.66376 2.67407-2.41953 17.75432-16.44081 33.51167-31.15837 15.75735-14.71758 37.82901-35.24056 49.04813-45.60664 11.21913-10.36609 27.17359-25.21325 35.45438-32.9937 8.28078-7.78044 17.02295-15.84975 19.42705-17.93179 2.4041-2.08204 13.73629-12.56603 25.18264-23.29775 31.35059-29.39326 34.27149-31.92307 35.18883-30.47721.4367.68831.79599 38.84281.79842 84.7878l.005 83.53633-48.06267 48.56763-48.06267 48.56763-.009 4.12825-.009 4.12825 45.89641.0132c25.24303.008 46.87991.27684 48.08196.59898l2.18554.58569v127.9697c0 118.85089-.24255 136.98711-1.83189 136.98054-.32808-.00097-7.64776-6.4487-16.26598-14.32745l-.00062.00005zm-85.62112-292.52247c2.35466-2.61894 8.48144-9.94051 13.61509-16.27016 5.13366-6.32965 15.72602-19.37641 23.53859-28.9928 13.86805-17.07001 14.19134-17.57351 13.64214-21.24682-.5851-3.91352-11.6398-32.09057-18.05474-46.01935-2.11305-4.58807-4.28529-8.01366-5.08163-8.01366-2.55935 0-25.85027 26.15914-82.1226 92.23582-18.07321 21.22212-20.54675 24.84853-20.54675 30.12342v2.94525h70.72872l4.28118-4.7617z"/>
</svg>