<svg width="64" xmlns="http://www.w3.org/2000/svg" height="64" viewBox="0 0 64 64">
  <path fill="#EAEAEA" d="M25.915 52.205c6.377 0 12.206-2.344 16.708-6.196L59.98 63.365c.392.391.904.587 1.418.587.513 0 1.025-.196 1.418-.587.392-.393.588-.904.588-1.418s-.196-1.027-.588-1.419L45.459 43.172c3.853-4.5 6.197-10.331 6.197-16.707C51.656 12.271 40.107.724 25.915.724 11.721.724.173 12.271.173 26.465c0 14.193 11.548 25.74 25.742 25.74zm0-47.47c11.98 0 21.729 9.747 21.729 21.729 0 11.98-9.749 21.729-21.729 21.729-11.981 0-21.73-9.748-21.73-21.729 0-11.982 9.749-21.729 21.73-21.729z"/>
</svg>