<svg xmlns="http://www.w3.org/2000/svg" viewBox="0 0 404 404"><path d="M354.752 0H49.248C22.049 0 0 22.049 0 49.248v305.504C0 381.951 22.049 404 49.248 404h305.504C381.951 404 404 381.951 404 354.752V49.248C404 22.049 381.951 0 354.752 0zM175.74 314.888c0 12.633-10.241 22.873-22.873 22.873H75.394c-12.633 0-22.873-10.241-22.873-22.873V78.827c0-12.633 10.241-22.873 22.873-22.873h77.473c12.633 0 22.873 10.241 22.873 22.873v236.061zm175.74-101.552c0 12.633-10.241 22.873-22.873 22.873h-77.473c-12.633 0-22.873-10.241-22.873-22.873V78.827c0-12.633 10.241-22.873 22.873-22.873h77.473c12.633 0 22.873 10.241 22.873 22.873v134.509z" fill="#518FE1"/></svg>