<svg id="SvgjsSvg1018" xmlns="http://www.w3.org/2000/svg" version="1.1" xmlns:xlink="http://www.w3.org/1999/xlink" xmlns:svgjs="http://svgjs.com/svgjs" width="162" height="162" viewBox="0 0 162 162"><title>Rounded Rectangle 2 copy</title><desc>Created with Avocode.</desc><defs id="SvgjsDefs1019"></defs><path id="SvgjsPath1020" d="M530 722H672C677.523 722 682 726.477 682 732V874C682 879.523 677.523 884 672 884H530C524.477 884 520 879.523 520 874V732C520 726.477 524.477 722 530 722Z " fill="#69d2e7" fill-opacity="1" transform="matrix(1,0,0,1,-520,-722)"></path><path id="SvgjsPath1021" d="M631.318 822.491C631.681 822.854 631.318 823.58 631.318 824.307L633.862 832.693L628.762 825.399C628.021 825.036 627.6719999999999 824.67 627.294 824.307C626.5799999999999 823.217 627.294 821.765 628.399 821.3870000000001C629.488 820.676 630.592 821.3870000000001 631.318 822.4910000000001ZM590.457 796.612L584.253 807.189L576.9580000000001 819.935C572.9470000000001 826.866 575.503 835.598 582.4220000000001 839.6089999999999C589.3650000000001 843.6059999999999 598.1150000000001 841.0759999999999 602.1260000000001 834.1449999999999L603.9570000000001 830.8749999999999L615.9890000000001 837.7789999999999C617.8190000000002 838.8829999999999 620.3630000000002 838.5049999999999 621.8310000000001 837.4159999999998C629.4880000000002 841.8029999999998 639.3380000000001 839.2459999999999 643.7130000000001 831.5889999999998C648.0880000000001 823.9439999999998 645.5430000000001 814.1079999999998 637.8710000000001 809.7329999999998L647.3620000000001 793.7039999999998C648.4510000000001 791.1629999999998 647.7250000000001 788.2409999999999 645.5430000000001 786.7879999999998L623.6610000000002 774.3929999999998C621.1040000000002 772.9409999999998 618.1670000000001 774.0299999999997 617.0930000000002 776.2079999999999L592.2730000000001 818.8429999999998C591.1990000000002 821.0239999999999 591.9250000000002 823.9439999999998 594.1030000000002 825.3989999999999L598.1150000000001 827.5919999999999L595.9360000000001 830.8749999999999C594.1030000000002 834.5079999999999 589.3650000000001 835.9749999999999 585.7200000000001 833.7819999999999C582.0710000000001 831.5889999999999 580.9670000000001 826.8659999999999 582.7970000000001 823.2169999999999L590.4570000000001 810.4739999999998L596.2990000000001 799.8949999999999L603.9570000000001 787.1509999999998C607.9650000000001 780.2199999999998 605.4090000000001 771.4849999999998 598.4780000000001 767.4919999999998C591.547 763.4649999999998 582.797 765.6589999999999 578.7890000000001 772.5779999999999L567.1200000000001 793.3409999999999C563.8340000000002 792.9779999999998 560.9150000000001 794.4309999999999 559.0850000000002 797.3529999999998L556.1620000000001 802.4539999999998C553.9840000000002 806.0849999999998 555.4510000000001 811.1999999999998 559.4620000000001 813.7449999999999C563.4710000000001 815.9229999999999 568.5720000000001 814.4859999999999 570.7530000000002 810.4739999999999L573.6880000000001 805.7209999999999C575.5030000000002 802.8169999999999 575.1400000000001 799.1829999999999 572.9470000000001 796.2639999999999L584.6160000000001 776.2079999999999C586.8090000000001 772.5779999999999 591.5470000000001 771.1079999999998 595.2070000000001 773.3039999999999C598.8560000000001 775.4969999999998 599.9450000000002 780.2199999999999 597.7520000000001 783.5029999999998ZM639.704 829.044C636.419 834.508 629.125 836.324 623.661 833.419C618.1669999999999 830.134 616.352 823.217 619.6339999999999 817.39C622.5569999999999 811.912 629.8509999999999 810.111 635.3299999999999 813.382C640.8079999999999 816.3009999999999 642.6239999999999 823.5799999999999 639.704 829.044Z " fill="#ffffff" fill-opacity="1" transform="matrix(1,0,0,1,-520,-722)"></path></svg>