<svg id="SvgjsSvg1027" xmlns="http://www.w3.org/2000/svg" version="1.1" xmlns:xlink="http://www.w3.org/1999/xlink" xmlns:svgjs="http://svgjs.com/svgjs" width="162" height="162" viewBox="0 0 162 162"><title>Rounded Rectangle 2 copy 2</title><desc>Created with Avocode.</desc><defs id="SvgjsDefs1028"></defs><path id="SvgjsPath1029" d="M866 722H1008C1013.52 722 1018 726.477 1018 732V874C1018 879.523 1013.52 884 1008 884H866C860.477 884 856 879.523 856 874V732C856 726.477 860.477 722 866 722Z " fill="#ffffff" fill-opacity="1" transform="matrix(1,0,0,1,-856,-722)"></path><path id="SvgjsPath1030" d="M928.911 803.501C928.911 807.858 932.9229999999999 811.87 937.31 811.87C942.0469999999999 811.87 945.6959999999999 807.8580000000001 945.6959999999999 803.501C945.6959999999999 798.764 942.0469999999999 795.115 937.31 795.115C932.923 795.115 928.911 798.764 928.911 803.501ZM969.394 831.181C967.578 831.922 965.385 832.2700000000001 963.204 832.2700000000001C960.6469999999999 832.2700000000001 957.728 831.9220000000001 954.805 831.181C955.183 829.366 955.909 827.914 956.2729999999999 826.08C957.362 822.45 958.103 818.438 958.4689999999999 814.063C961.3729999999999 811.5219999999999 963.93 808.962 966.4889999999999 806.043C966.852 806.769 967.2149999999999 807.147 967.578 807.51C969.7719999999999 810.432 971.5899999999999 813.337 972.694 816.26C973.783 819.164 974.509 821.724 974.509 823.539C974.509 825.717 974.1610000000001 827.172 973.057 828.64C972.331 829.729 970.864 830.455 969.394 831.181ZM946.437 828.64C944.604 827.914 942.773 826.821 940.958 826.08C943.8779999999999 824.265 947.148 822.813 950.068 820.6310000000001C951.523 819.527 952.99 818.4380000000001 954.457 817.349C953.716 822.072 952.99 826.4580000000001 951.523 830.0920000000001C949.705 829.729 948.2520000000001 829.003 946.437 828.6400000000001ZM943.878 843.213C942.773 844.302 941.6690000000001 845.031 940.595 845.395C939.854 846.136 938.399 846.484 937.3100000000001 846.484C936.22 846.484 935.1160000000001 846.1360000000001 934.0120000000001 845.395C932.2090000000001 844.668 930.378 842.85 928.5630000000001 840.6569999999999C927.0960000000001 838.4639999999999 925.6260000000001 836.2819999999999 924.5360000000001 833.3779999999999C926.3670000000001 832.6479999999999 927.822 832.27 929.6370000000001 831.544C932.2090000000001 830.4549999999999 934.753 829.366 937.3100000000001 827.914C939.854 829.366 942.773 830.455 944.9670000000001 831.544C946.7850000000001 832.27 948.6150000000001 833.014 950.4460000000001 833.3779999999999C950.0680000000001 833.741 950.0680000000001 834.1039999999999 950.0680000000001 834.467C948.2520000000001 838.112 946.0590000000001 841.035 943.878 843.213ZM920.162 816.986C921.6170000000001 818.075 923.0840000000001 819.164 924.5360000000001 820.253C927.4590000000001 822.45 930.7410000000001 824.265 933.6490000000001 826.08C931.8310000000001 826.821 930.0000000000001 827.5500000000001 928.5630000000001 828.2620000000001C926.7300000000001 829.003 924.9000000000001 829.3660000000001 923.4470000000001 830.0920000000001C922.7210000000001 828.6400000000001 922.3430000000001 826.8210000000001 921.9800000000001 824.9910000000001C921.2540000000001 822.8130000000001 920.8910000000001 819.8900000000001 920.1620000000001 816.9860000000001ZM905.573 830.833C903.7429999999999 830.4549999999999 902.2909999999999 829.366 901.562 828.262C900.473 826.8209999999999 900.095 825.3539999999999 900.095 823.1759999999999C900.095 821.3459999999999 900.836 818.8009999999999 901.928 815.882C903.38 812.959 905.573 809.328 908.496 806.0429999999999V806.4209999999999C911.037 808.5989999999999 913.5939999999999 811.5219999999999 916.516 814.063C917.242 820.253 918.332 825.717 920.1619999999999 830.833C916.8789999999999 831.544 913.9569999999999 831.922 911.7639999999999 831.922C909.2069999999999 831.922 907.0259999999998 831.544 905.5729999999999 830.833ZM910.689 803.135L911.0369999999999 802.7719999999999C912.5049999999999 800.9419999999999 914.3229999999999 799.4899999999999 916.1529999999999 797.674C915.7749999999999 799.49 915.7749999999999 801.3199999999999 915.7749999999999 803.501C915.7749999999999 805.332 915.7749999999999 807.1469999999999 916.1529999999999 808.962C913.9569999999999 807.1469999999999 912.141 805.332 910.6889999999999 803.135ZM900.473 783.098C900.473 781.2679999999999 900.836 779.4639999999999 901.928 778.3599999999999C902.654 777.2559999999999 904.106 776.1669999999999 905.573 775.8189999999998C907.389 775.0779999999999 909.207 774.7289999999998 911.764 774.7289999999998C913.957 774.7289999999998 916.879 775.0779999999999 920.162 775.8189999999998C919.436 777.2559999999999 919.073 779.0859999999999 918.71 780.9189999999999C917.605 784.5499999999998 916.879 788.5619999999999 916.5160000000001 792.5729999999999C913.594 795.4779999999998 910.6890000000001 798.0369999999999 908.4960000000001 800.5789999999998C908.118 800.2309999999999 907.7550000000001 799.8529999999998 907.3890000000001 799.4899999999998C905.1950000000002 796.2189999999998 903.3800000000001 793.2999999999997 901.9280000000001 790.7399999999998C900.8360000000001 787.8359999999998 900.4730000000001 785.2759999999997 900.4730000000001 783.0979999999997ZM928.563 778.36C930.378 779.086 931.831 779.827 934.012 780.919C930.741 782.372 927.8219999999999 784.187 924.9 786.383C923.447 787.4730000000001 921.617 788.562 920.1619999999999 789.6510000000001C920.891 784.9280000000001 921.9799999999999 780.556 923.4469999999999 776.5450000000001C924.8999999999999 777.2560000000001 926.7299999999999 777.6340000000001 928.5629999999999 778.3600000000001ZM930.741 763.424C931.831 762.698 932.923 761.968 934.012 761.242C935.116 760.8639999999999 936.2199999999999 760.516 937.31 760.516C938.399 760.516 939.8539999999999 760.8639999999999 940.5949999999999 761.242C942.7729999999999 761.968 944.6039999999999 763.7869999999999 946.4369999999999 766.343C947.8889999999999 768.536 948.978 770.718 950.4459999999999 773.637C948.6149999999999 774.352 946.785 774.7289999999999 945.3299999999999 775.4549999999999C942.7729999999999 776.545 940.232 777.256 937.6579999999999 778.723C934.7529999999999 777.256 932.209 776.1669999999999 929.637 775.4549999999999C927.8219999999999 774.7289999999999 926.367 773.9879999999999 924.536 773.637C924.9 773.2589999999999 924.9 772.896 924.9 772.5329999999999C926.73 768.8879999999999 928.563 765.6169999999998 930.741 763.4239999999999ZM954.457 789.651C952.99 788.5619999999999 951.901 787.473 950.068 786.3829999999999C947.148 784.1869999999999 944.241 782.372 941.321 780.9189999999999C943.1370000000001 779.8269999999999 944.604 779.0859999999999 946.437 778.7229999999998C948.2520000000001 777.9969999999998 950.068 777.2559999999999 951.523 776.9079999999998C951.9010000000001 778.3599999999998 952.6270000000001 779.8269999999998 952.99 781.6459999999998C953.716 784.1869999999999 954.0790000000001 787.1099999999999 954.457 789.6509999999998ZM955.183 812.248C952.99 814.0630000000001 950.794 815.8820000000001 948.252 817.7120000000001C944.6039999999999 820.2530000000002 940.958 822.4500000000002 937.31 824.2650000000001C933.649 822.45 930 820.2530000000002 926.7299999999999 817.7120000000001C924.1729999999999 815.8820000000001 921.9799999999999 814.0630000000001 919.7839999999999 812.248C919.4359999999999 809.3280000000001 919.4359999999999 806.421 919.4359999999999 803.5010000000001C919.4359999999999 800.2310000000001 919.4359999999999 797.3080000000001 919.7839999999999 794.3890000000001C921.9799999999999 792.5730000000001 924.1729999999999 791.1180000000002 926.7299999999999 789.2880000000001C930.3779999999999 786.7470000000001 934.012 784.5500000000001 937.6579999999999 782.7350000000001C940.9579999999999 784.5500000000002 944.6039999999999 786.7470000000001 948.252 789.2880000000001C950.794 791.1180000000002 952.99 792.5730000000001 955.183 794.3890000000001C955.532 797.3080000000001 955.532 800.5790000000002 955.532 803.5010000000001C955.532 806.421 955.532 809.3280000000001 955.183 812.248ZM964.296 803.501L963.9300000000001 804.242C962.114 806.043 960.647 807.51 958.8320000000001 808.962C958.8320000000001 807.1469999999999 958.8320000000001 805.332 958.8320000000001 803.501C958.8320000000001 801.668 958.8320000000001 799.853 958.8320000000001 797.674C960.6470000000002 799.853 962.8410000000001 801.668 964.2960000000002 803.501ZM969.394 775.819C971.227 776.545 972.331 777.256 973.405 778.723C974.161 779.827 974.509 781.646 974.509 783.461C974.509 785.654 974.1610000000001 788.1990000000001 973.057 790.74C971.59 794.026 969.394 797.308 966.489 800.942L966.126 800.579C963.93 798.0369999999999 961.3729999999999 795.478 958.4689999999999 792.9369999999999C957.728 786.7469999999998 956.636 780.9189999999999 954.805 776.1669999999999C958.103 775.4549999999999 960.6469999999999 775.0779999999999 963.204 775.0779999999999C965.7479999999999 775.0779999999999 967.9409999999999 775.4549999999998 969.394 775.8189999999998ZM970.501 801.668C972.694 798.401 974.509 795.115 975.977 792.211C977.417 789.288 978.173 786.383 978.173 783.461C978.173 780.919 977.417 778.723 975.977 776.545C974.509 774.7289999999999 972.694 773.637 970.501 772.896C968.319 771.8069999999999 965.7479999999999 771.444 963.204 771.444C960.284 771.444 956.9989999999999 772.17 953.7159999999999 772.896C953.3529999999998 772.17 953.3529999999998 771.8069999999999 952.9899999999999 771.444C951.1719999999999 767.069 948.978 763.424 946.4369999999999 761.242C944.9669999999999 759.775 943.4999999999999 759.049 942.0469999999999 758.323C940.5949999999999 757.597 939.1279999999999 757.2339999999999 937.31 757.2339999999999C935.842 757.2339999999999 934.39 757.597 932.5719999999999 758.323C929.9999999999999 759.427 927.8219999999999 761.605 925.6259999999999 764.15C924.1729999999999 766.706 922.7209999999999 769.629 921.2539999999999 772.533C917.9689999999999 771.807 914.7009999999999 771.444 911.7639999999999 771.444C909.2069999999999 771.444 906.6629999999999 771.807 904.4839999999999 772.533C902.2909999999999 773.259 900.473 774.729 899.0049999999999 776.167C897.5529999999999 777.9970000000001 897.1749999999998 780.556 897.1749999999998 783.0980000000001C897.1749999999998 786.017 897.5529999999999 788.9250000000001 899.0049999999999 791.8470000000001C900.4729999999998 795.4780000000001 903.0169999999998 799.4900000000001 905.9359999999999 803.1350000000001C905.5729999999999 803.8650000000001 904.8469999999999 804.5910000000001 904.4839999999999 805.3320000000001C901.9279999999999 808.5990000000002 900.0949999999999 811.5220000000002 898.6419999999999 814.7890000000001C897.5529999999999 817.7120000000001 896.8269999999999 820.6310000000001 896.8269999999999 823.1760000000002C896.8269999999999 825.7170000000002 897.5529999999999 828.2620000000002 898.6419999999999 830.0920000000002C900.0949999999999 831.9220000000003 901.9279999999999 833.3780000000002 904.106 834.1040000000002C906.3 834.8450000000001 908.859 835.1930000000002 911.764 835.1930000000002C914.701 835.1930000000002 917.605 834.8450000000003 921.254 834.1040000000002C921.254 834.4670000000002 921.6170000000001 835.1930000000002 921.98 835.5560000000002C923.7950000000001 839.5670000000001 925.989 843.2130000000002 928.563 845.7580000000002C930 846.8620000000002 931.105 847.9510000000001 932.572 848.6770000000001C934.39 849.4030000000001 935.842 849.7660000000002 937.3100000000001 849.7660000000002C939.128 849.7660000000002 940.595 849.4030000000001 942.047 848.6770000000001C944.604 847.5880000000001 947.148 845.3950000000001 948.9780000000001 842.4720000000001C950.7940000000001 840.2940000000001 952.264 837.3710000000001 953.7160000000001 834.4670000000001C956.9990000000001 835.1930000000001 960.2840000000001 835.5560000000002 963.2040000000002 835.5560000000002C965.7480000000002 835.5560000000002 968.3190000000002 835.1930000000001 970.5010000000002 834.4670000000001C972.6940000000002 833.7410000000001 974.5090000000002 832.2700000000001 975.5990000000002 830.4550000000002C977.0690000000002 828.6400000000001 977.7950000000002 826.0800000000002 977.7950000000002 823.5390000000001C977.7950000000002 820.9820000000001 977.0690000000002 818.075 975.9770000000002 814.7890000000001C974.1610000000002 811.1590000000001 971.9530000000002 807.5100000000001 968.6680000000002 803.5010000000001C969.3940000000002 803.1350000000001 969.7720000000003 802.4090000000001 970.5010000000002 801.6680000000001Z " fill="#fa6900" fill-opacity="1" transform="matrix(1,0,0,1,-856,-722)"></path><path id="SvgjsPath1031" d="M928.911 803.501C928.911 807.858 932.9229999999999 811.87 937.31 811.87C942.0469999999999 811.87 945.6959999999999 807.8580000000001 945.6959999999999 803.501C945.6959999999999 798.764 942.0469999999999 795.115 937.31 795.115C932.923 795.115 928.911 798.764 928.911 803.501ZM969.394 831.181C967.578 831.922 965.385 832.2700000000001 963.204 832.2700000000001C960.6469999999999 832.2700000000001 957.728 831.9220000000001 954.805 831.181C955.183 829.366 955.909 827.914 956.2729999999999 826.08C957.362 822.45 958.103 818.438 958.4689999999999 814.063C961.3729999999999 811.5219999999999 963.93 808.962 966.4889999999999 806.043C966.852 806.769 967.2149999999999 807.147 967.578 807.51C969.7719999999999 810.432 971.5899999999999 813.337 972.694 816.26C973.783 819.164 974.509 821.724 974.509 823.539C974.509 825.717 974.1610000000001 827.172 973.057 828.64C972.331 829.729 970.864 830.455 969.394 831.181ZM946.437 828.64C944.604 827.914 942.773 826.821 940.958 826.08C943.8779999999999 824.265 947.148 822.813 950.068 820.6310000000001C951.523 819.527 952.99 818.4380000000001 954.457 817.349C953.716 822.072 952.99 826.4580000000001 951.523 830.0920000000001C949.705 829.729 948.2520000000001 829.003 946.437 828.6400000000001ZM943.878 843.213C942.773 844.302 941.6690000000001 845.031 940.595 845.395C939.854 846.136 938.399 846.484 937.3100000000001 846.484C936.22 846.484 935.1160000000001 846.1360000000001 934.0120000000001 845.395C932.2090000000001 844.668 930.378 842.85 928.5630000000001 840.6569999999999C927.0960000000001 838.4639999999999 925.6260000000001 836.2819999999999 924.5360000000001 833.3779999999999C926.3670000000001 832.6479999999999 927.822 832.27 929.6370000000001 831.544C932.2090000000001 830.4549999999999 934.753 829.366 937.3100000000001 827.914C939.854 829.366 942.773 830.455 944.9670000000001 831.544C946.7850000000001 832.27 948.6150000000001 833.014 950.4460000000001 833.3779999999999C950.0680000000001 833.741 950.0680000000001 834.1039999999999 950.0680000000001 834.467C948.2520000000001 838.112 946.0590000000001 841.035 943.878 843.213ZM920.162 816.986C921.6170000000001 818.075 923.0840000000001 819.164 924.5360000000001 820.253C927.4590000000001 822.45 930.7410000000001 824.265 933.6490000000001 826.08C931.8310000000001 826.821 930.0000000000001 827.5500000000001 928.5630000000001 828.2620000000001C926.7300000000001 829.003 924.9000000000001 829.3660000000001 923.4470000000001 830.0920000000001C922.7210000000001 828.6400000000001 922.3430000000001 826.8210000000001 921.9800000000001 824.9910000000001C921.2540000000001 822.8130000000001 920.8910000000001 819.8900000000001 920.1620000000001 816.9860000000001ZM905.573 830.833C903.7429999999999 830.4549999999999 902.2909999999999 829.366 901.562 828.262C900.473 826.8209999999999 900.095 825.3539999999999 900.095 823.1759999999999C900.095 821.3459999999999 900.836 818.8009999999999 901.928 815.882C903.38 812.959 905.573 809.328 908.496 806.0429999999999V806.4209999999999C911.037 808.5989999999999 913.5939999999999 811.5219999999999 916.516 814.063C917.242 820.253 918.332 825.717 920.1619999999999 830.833C916.8789999999999 831.544 913.9569999999999 831.922 911.7639999999999 831.922C909.2069999999999 831.922 907.0259999999998 831.544 905.5729999999999 830.833ZM910.689 803.135L911.0369999999999 802.7719999999999C912.5049999999999 800.9419999999999 914.3229999999999 799.4899999999999 916.1529999999999 797.674C915.7749999999999 799.49 915.7749999999999 801.3199999999999 915.7749999999999 803.501C915.7749999999999 805.332 915.7749999999999 807.1469999999999 916.1529999999999 808.962C913.9569999999999 807.1469999999999 912.141 805.332 910.6889999999999 803.135ZM900.473 783.098C900.473 781.2679999999999 900.836 779.4639999999999 901.928 778.3599999999999C902.654 777.2559999999999 904.106 776.1669999999999 905.573 775.8189999999998C907.389 775.0779999999999 909.207 774.7289999999998 911.764 774.7289999999998C913.957 774.7289999999998 916.879 775.0779999999999 920.162 775.8189999999998C919.436 777.2559999999999 919.073 779.0859999999999 918.71 780.9189999999999C917.605 784.5499999999998 916.879 788.5619999999999 916.5160000000001 792.5729999999999C913.594 795.4779999999998 910.6890000000001 798.0369999999999 908.4960000000001 800.5789999999998C908.118 800.2309999999999 907.7550000000001 799.8529999999998 907.3890000000001 799.4899999999998C905.1950000000002 796.2189999999998 903.3800000000001 793.2999999999997 901.9280000000001 790.7399999999998C900.8360000000001 787.8359999999998 900.4730000000001 785.2759999999997 900.4730000000001 783.0979999999997ZM928.563 778.36C930.378 779.086 931.831 779.827 934.012 780.919C930.741 782.372 927.8219999999999 784.187 924.9 786.383C923.447 787.4730000000001 921.617 788.562 920.1619999999999 789.6510000000001C920.891 784.9280000000001 921.9799999999999 780.556 923.4469999999999 776.5450000000001C924.8999999999999 777.2560000000001 926.7299999999999 777.6340000000001 928.5629999999999 778.3600000000001ZM930.741 763.424C931.831 762.698 932.923 761.968 934.012 761.242C935.116 760.8639999999999 936.2199999999999 760.516 937.31 760.516C938.399 760.516 939.8539999999999 760.8639999999999 940.5949999999999 761.242C942.7729999999999 761.968 944.6039999999999 763.7869999999999 946.4369999999999 766.343C947.8889999999999 768.536 948.978 770.718 950.4459999999999 773.637C948.6149999999999 774.352 946.785 774.7289999999999 945.3299999999999 775.4549999999999C942.7729999999999 776.545 940.232 777.256 937.6579999999999 778.723C934.7529999999999 777.256 932.209 776.1669999999999 929.637 775.4549999999999C927.8219999999999 774.7289999999999 926.367 773.9879999999999 924.536 773.637C924.9 773.2589999999999 924.9 772.896 924.9 772.5329999999999C926.73 768.8879999999999 928.563 765.6169999999998 930.741 763.4239999999999ZM954.457 789.651C952.99 788.5619999999999 951.901 787.473 950.068 786.3829999999999C947.148 784.1869999999999 944.241 782.372 941.321 780.9189999999999C943.1370000000001 779.8269999999999 944.604 779.0859999999999 946.437 778.7229999999998C948.2520000000001 777.9969999999998 950.068 777.2559999999999 951.523 776.9079999999998C951.9010000000001 778.3599999999998 952.6270000000001 779.8269999999998 952.99 781.6459999999998C953.716 784.1869999999999 954.0790000000001 787.1099999999999 954.457 789.6509999999998ZM955.183 812.248C952.99 814.0630000000001 950.794 815.8820000000001 948.252 817.7120000000001C944.6039999999999 820.2530000000002 940.958 822.4500000000002 937.31 824.2650000000001C933.649 822.45 930 820.2530000000002 926.7299999999999 817.7120000000001C924.1729999999999 815.8820000000001 921.9799999999999 814.0630000000001 919.7839999999999 812.248C919.4359999999999 809.3280000000001 919.4359999999999 806.421 919.4359999999999 803.5010000000001C919.4359999999999 800.2310000000001 919.4359999999999 797.3080000000001 919.7839999999999 794.3890000000001C921.9799999999999 792.5730000000001 924.1729999999999 791.1180000000002 926.7299999999999 789.2880000000001C930.3779999999999 786.7470000000001 934.012 784.5500000000001 937.6579999999999 782.7350000000001C940.9579999999999 784.5500000000002 944.6039999999999 786.7470000000001 948.252 789.2880000000001C950.794 791.1180000000002 952.99 792.5730000000001 955.183 794.3890000000001C955.532 797.3080000000001 955.532 800.5790000000002 955.532 803.5010000000001C955.532 806.421 955.532 809.3280000000001 955.183 812.248ZM964.296 803.501L963.9300000000001 804.242C962.114 806.043 960.647 807.51 958.8320000000001 808.962C958.8320000000001 807.1469999999999 958.8320000000001 805.332 958.8320000000001 803.501C958.8320000000001 801.668 958.8320000000001 799.853 958.8320000000001 797.674C960.6470000000002 799.853 962.8410000000001 801.668 964.2960000000002 803.501ZM969.394 775.819C971.227 776.545 972.331 777.256 973.405 778.723C974.161 779.827 974.509 781.646 974.509 783.461C974.509 785.654 974.1610000000001 788.1990000000001 973.057 790.74C971.59 794.026 969.394 797.308 966.489 800.942L966.126 800.579C963.93 798.0369999999999 961.3729999999999 795.478 958.4689999999999 792.9369999999999C957.728 786.7469999999998 956.636 780.9189999999999 954.805 776.1669999999999C958.103 775.4549999999999 960.6469999999999 775.0779999999999 963.204 775.0779999999999C965.7479999999999 775.0779999999999 967.9409999999999 775.4549999999998 969.394 775.8189999999998ZM970.501 801.668C972.694 798.401 974.509 795.115 975.977 792.211C977.417 789.288 978.173 786.383 978.173 783.461C978.173 780.919 977.417 778.723 975.977 776.545C974.509 774.7289999999999 972.694 773.637 970.501 772.896C968.319 771.8069999999999 965.7479999999999 771.444 963.204 771.444C960.284 771.444 956.9989999999999 772.17 953.7159999999999 772.896C953.3529999999998 772.17 953.3529999999998 771.8069999999999 952.9899999999999 771.444C951.1719999999999 767.069 948.978 763.424 946.4369999999999 761.242C944.9669999999999 759.775 943.4999999999999 759.049 942.0469999999999 758.323C940.5949999999999 757.597 939.1279999999999 757.2339999999999 937.31 757.2339999999999C935.842 757.2339999999999 934.39 757.597 932.5719999999999 758.323C929.9999999999999 759.427 927.8219999999999 761.605 925.6259999999999 764.15C924.1729999999999 766.706 922.7209999999999 769.629 921.2539999999999 772.533C917.9689999999999 771.807 914.7009999999999 771.444 911.7639999999999 771.444C909.2069999999999 771.444 906.6629999999999 771.807 904.4839999999999 772.533C902.2909999999999 773.259 900.473 774.729 899.0049999999999 776.167C897.5529999999999 777.9970000000001 897.1749999999998 780.556 897.1749999999998 783.0980000000001C897.1749999999998 786.017 897.5529999999999 788.9250000000001 899.0049999999999 791.8470000000001C900.4729999999998 795.4780000000001 903.0169999999998 799.4900000000001 905.9359999999999 803.1350000000001C905.5729999999999 803.8650000000001 904.8469999999999 804.5910000000001 904.4839999999999 805.3320000000001C901.9279999999999 808.5990000000002 900.0949999999999 811.5220000000002 898.6419999999999 814.7890000000001C897.5529999999999 817.7120000000001 896.8269999999999 820.6310000000001 896.8269999999999 823.1760000000002C896.8269999999999 825.7170000000002 897.5529999999999 828.2620000000002 898.6419999999999 830.0920000000002C900.0949999999999 831.9220000000003 901.9279999999999 833.3780000000002 904.106 834.1040000000002C906.3 834.8450000000001 908.859 835.1930000000002 911.764 835.1930000000002C914.701 835.1930000000002 917.605 834.8450000000003 921.254 834.1040000000002C921.254 834.4670000000002 921.6170000000001 835.1930000000002 921.98 835.5560000000002C923.7950000000001 839.5670000000001 925.989 843.2130000000002 928.563 845.7580000000002C930 846.8620000000002 931.105 847.9510000000001 932.572 848.6770000000001C934.39 849.4030000000001 935.842 849.7660000000002 937.3100000000001 849.7660000000002C939.128 849.7660000000002 940.595 849.4030000000001 942.047 848.6770000000001C944.604 847.5880000000001 947.148 845.3950000000001 948.9780000000001 842.4720000000001C950.7940000000001 840.2940000000001 952.264 837.3710000000001 953.7160000000001 834.4670000000001C956.9990000000001 835.1930000000001 960.2840000000001 835.5560000000002 963.2040000000002 835.5560000000002C965.7480000000002 835.5560000000002 968.3190000000002 835.1930000000001 970.5010000000002 834.4670000000001C972.6940000000002 833.7410000000001 974.5090000000002 832.2700000000001 975.5990000000002 830.4550000000002C977.0690000000002 828.6400000000001 977.7950000000002 826.0800000000002 977.7950000000002 823.5390000000001C977.7950000000002 820.9820000000001 977.0690000000002 818.075 975.9770000000002 814.7890000000001C974.1610000000002 811.1590000000001 971.9530000000002 807.5100000000001 968.6680000000002 803.5010000000001C969.3940000000002 803.1350000000001 969.7720000000003 802.4090000000001 970.5010000000002 801.6680000000001Z " fill="#69d2e7" fill-opacity="1" transform="matrix(1,0,0,1,-856,-722)"></path></svg>