<svg version="1" xmlns="http://www.w3.org/2000/svg" width="1042.667" height="1042.667" viewBox="0 0 782.000000 782.000000"><path d="M763.6.7c-.1.2-4.4.5-9.4.8-23 1.3-37.9 2.2-46.2 3-3 .2-8.6.7-12.5 1-3.8.3-9.9.7-13.5 1.1-3.6.3-8.3.7-10.5.9-2.2.2-6.7.6-10 1-6 .7-7.9.9-19 2-6.7.7-13.3 1.4-18.5 2-1.9.2-6.2.6-9.5 1-10 1-12.8 1.3-17.3 1.9-7.1 1-17.4 2.2-24.7 3.1-5.4.6-9.2 1.1-15.8 2-2.3.3-5.9.8-7.9 1.1-3.7.5-7.7 1.1-13.1 1.9-3.1.5-8 1.1-14.7 2-2.5.3-5.2.8-6 1-.8.2-3.8.7-6.6 1-2.8.3-5.9.7-7 .9-1 .2-3.9.7-6.4 1.1-2.5.4-5.4.9-6.5 1.2-1.1.2-3.6.6-5.5.8-3.7.5-7 1-11 1.9-1.4.3-4.1.8-6 1-1.9.3-4.6.7-6 1-1.4.3-4.1.8-6 1-1.9.3-4.6.8-6 1.1-2.4.5-3.6.7-12 2.2-3.7.6-5.6 1-9.2 1.8-1.3.3-3.9.8-5.8 1.1-1.9.3-5.1.9-7 1.4-1.9.5-5.1 1.1-7 1.4-1.9.3-4.6.8-6 1.1-1.4.3-3.4.8-4.5 1-1.1.3-3.1.7-4.5 1-1.4.4-3.6.8-5 1.1-1.4.2-3.5.6-4.7.9-1.3.3-2.6.6-3 .7-.5.1-2.4.5-4.3 1s-4.6 1.1-6 1.3c-2.3.5-5.9 1.3-8.5 2.1-1.3.4-5.5 1.4-8 1.9-4.1 1-6.6 1.5-8.2 2-1 .2-5.4 1.3-9.8 2.5-4.4 1.1-8.8 2.2-9.7 2.5-1 .3-2.6.7-3.5 1-8.9 2.3-28.7 8-36.8 10.5-12.4 3.9-15.8 4.9-16.7 5-.4 0-2.9 1-5.5 2.1-2.7 1.2-5.6 2.3-6.5 2.5-1 .2-2.6.6-3.5.8-1 .2-3.9 1.3-6.5 2.5-2.7 1.1-4.8 1.8-4.8 1.5 0-.2-1 .1-2.2.8-1.3.6-2.7 1.3-3.3 1.4-.5.1-4.4 1.7-8.5 3.4s-7.9 3.3-8.5 3.4c-.5.1-1.9.7-3 1.3-1.1.6-2.3 1.2-2.7 1.2-.8.2-7.4 2.9-13.8 5.8-1.9.9-3.7 1.7-4 1.8-.3 0-2.1.9-4 2s-3.7 1.9-4 2c-1 .1-15.9 8-27.5 14.5-2.2 1.2-5.4 3.3-7.2 4.6-1.7 1.3-3.5 2.4-3.9 2.4-.4 0-2.2 1.1-4 2.5-1.8 1.4-3.6 2.5-3.9 2.5-.4 0-4.5 3-9.3 6.7-15.8 12.5-47.5 45.6-57.5 60.3-1.3 1.9-4.8 7.1-7.9 11.5-51.1 74.2-71.9 171.4-56.1 263 3.2 19.1 11 48.1 16.5 62 1.1 2.7 2.4 5.9 2.8 7 8.3 21.4 19.8 43.9 32.4 63.5 3.3 5.2 6.4 9.9 6.9 10.5.4.5 3.1 4.1 5.9 8 2.9 3.8 5.8 7.6 6.5 8.3 4.1 4.2 5.2 2.9-38.3 46.3C19.6 709.8 1 729 1 729.6c0 .6 11.6 12.7 25.7 26.8l25.6 25.8 41.9-41.9c41.2-41.2 41.8-41.8 44.2-40.3 2.9 1.8 6.2 4.2 12.6 9.2 2.6 2.1 5.2 3.8 5.8 3.8.5 0 1.2.7 1.6 1.5.3.8 1 1.5 1.5 1.5s5 2.7 10 6c8.7 5.7 17.8 10.9 30.6 17.4 3.3 1.7 6.3 3.5 6.6 3.9.3.5.9.8 1.3.8.3-.1 3.5 1.2 7.1 2.8 3.5 1.6 8.2 3.5 10.2 4.2 2.1.8 4.7 1.9 5.8 2.6 1.1.7 2.9 1.3 4.1 1.3 1.1 0 2.4.3 2.7.7.9.9 16.7 6.4 19.7 6.8 1.4.2 4.2 1.1 6.3 2 2 .8 3.9 1.5 4.2 1.4.9-.1 7 1.3 8 1.9.5.3 1.6.7 2.5.8 3.1.5 7.7 1.3 12.5 2.4 7.4 1.6 8.5 1.8 14 2.5 2.8.3 6.1.8 7.5 1.1 1.4.2 4.8.6 7.5.9 2.8.2 7.3.7 10 1.1 15.4 1.9 51.9 1.8 65-.2 1.7-.2 5.5-.6 8.5-.9 3-.2 6.9-.6 8.5-.9 1.7-.3 4.8-.8 7-1.2 2.2-.3 7.2-1.2 11-2 3.9-.8 8.6-1.7 10.5-2 1.9-.3 4.4-.8 5.5-1.1 1.1-.4 2.5-.8 3-.9 3.5-.9 5.6-1.5 10.3-2.9 2.8-.8 7.6-2.2 10.5-3 2.8-.9 6-1.8 7.1-2 1-.2 2.3-.8 3-1.3.6-.5 2.5-1.3 4.1-1.7 1.7-.5 3.5-.9 4-1.1 3.2-.9 19.1-7.7 20.9-9 1.3-.8 2.6-1.1 2.9-.8.4.4.9-.1 1.3-1 .3-.9.9-1.4 1.3-1.2.7.5 13.5-5.7 15.8-7.6.7-.6 1.3-.7 1.3-.4 0 .4 1.4-.3 3.2-1.6 1.8-1.2 3.9-2.3 4.7-2.5.8-.1 1.7-.5 2-1 .9-1.3 6.1-4.4 6.1-3.7 0 .3 1.8-.8 3.9-2.5 2.1-1.7 4.2-3.1 4.6-3.1.8 0 9.4-6 17.5-12.2 2.7-2.1 5.4-3.8 5.9-3.8s2.1-1.4 3.5-3c1.4-1.7 2.7-2.9 2.8-2.8.6.6 12.4-9.8 24.1-21.2 10.6-10.3 28.7-30.8 28.7-32.5 0-.4 1.4-2.4 3-4.5 1.7-2.1 3-4.1 3-4.5 0-.5 1.1-2.3 2.5-4 1.3-1.8 2.1-3.5 1.8-3.9-.4-.3-.1-.6.6-.6.6 0 1.6-1 2.1-2.3.5-1.2 3-5.8 5.5-10.2 6.6-11.7 17.6-34.5 22.5-46.5 2.3-5.8 4.9-12 5.7-13.9 1.9-4.2 14.9-40.7 15.4-43.1.1-.3.3-1 .5-1.5 9.8-29.1 21.7-75.1 34.3-133.5 2.8-12.8 11.1-57.9 13.1-70.5.5-3.3 1.6-10.5 2.5-16 .9-5.5 2-12.5 2.5-15.5 1.2-8.2 6.4-44.6 7.5-52.9 3.1-23.7 4.3-33.8 4.3-35.1 0-.8.4-4.4 1-8 .6-3.6 1-7.2 1-8-.1-.8.7-7.8 1.6-15.5 3.2-27.7 3.6-31.1 4.2-40 .3-5 .8-9.2.9-9.5.2-.3.7-5.6 1-11.7.4-6.2.8-12 1-13 .5-2.8 1.4-14.7 2-25.8.3-5.5.8-11.8 1-14 .4-4 2-33.8 2-38.5 0-2.5-.1-2.5-8.8-2.5-4.9 0-9 .1-9.1.2z"/></svg>