<?xml version="1.0" standalone="no"?>
<!DOCTYPE svg PUBLIC "-//W3C//DTD SVG 20010904//EN"
 "http://www.w3.org/TR/2001/REC-SVG-20010904/DTD/svg10.dtd">
<svg version="1.0" xmlns="http://www.w3.org/2000/svg"
 width="16.000000pt" height="16.000000pt" viewBox="0 0 16.000000 16.000000"
 preserveAspectRatio="xMidYMid meet">
<metadata>
Created by potrace 1.11, written by Peter Selinger 2001-2013
</metadata>
<g transform="translate(0.000000,16.000000) scale(0.005333,-0.005333)"
fill="#000000" stroke="none">
<path d="M1280 2624 c-176 -32 -354 -112 -499 -224 -587 -454 -587 -1346 0
-1800 592 -457 1455 -235 1748 451 70 163 85 247 85 449 0 148 -3 189 -22 264
-112 447 -471 783 -917 860 -108 19 -291 19 -395 0z m323 -509 c164 -34 286
-158 304 -307 l6 -48 -115 0 -115 0 -12 42 c-31 100 -153 149 -299 117 -72
-15 -113 -53 -119 -110 -6 -52 6 -81 42 -105 13 -9 118 -39 232 -69 276 -70
344 -104 393 -201 21 -42 25 -63 25 -144 0 -88 -3 -101 -33 -162 -67 -136
-215 -208 -427 -208 -171 0 -299 45 -381 132 -53 57 -80 112 -92 191 l-9 57
119 0 c116 0 118 0 118 -22 0 -45 43 -102 95 -128 44 -22 63 -25 155 -25 117
0 166 16 204 68 30 40 28 108 -2 140 -31 33 -74 48 -272 97 -195 48 -229 60
-292 106 -68 50 -100 122 -102 229 -1 100 21 166 81 234 97 111 299 158 496
116z"/>
</g>
</svg>
