<?xml version="1.0" standalone="no"?>
<!DOCTYPE svg PUBLIC "-//W3C//DTD SVG 20010904//EN"
 "http://www.w3.org/TR/2001/REC-SVG-20010904/DTD/svg10.dtd">
<svg version="1.0" xmlns="http://www.w3.org/2000/svg"
 width="700.000000pt" height="700.000000pt" viewBox="0 0 700.000000 700.000000"
 preserveAspectRatio="xMidYMid meet">
<metadata>
Created by potrace 1.11, written by Peter Selinger 2001-2013
</metadata>
<g transform="translate(0.000000,700.000000) scale(0.100000,-0.100000)"
fill="#000000" stroke="none">
<path d="M915 6986 c-137 -34 -253 -137 -306 -274 l-23 -57 -1 -3119 c-1
-1716 2 -3145 7 -3175 12 -79 59 -169 120 -230 58 -58 105 -86 188 -113 52
-17 193 -18 2595 -17 2349 0 2545 2 2600 17 83 24 131 52 192 112 59 58 108
149 121 225 9 56 8 4256 -1 4295 -4 14 -14 57 -23 95 -18 71 -66 201 -105 277
-71 142 -109 183 -883 955 -418 418 -786 778 -816 800 -76 54 -218 126 -324
162 -182 63 -94 60 -1766 60 -1178 -1 -1536 -4 -1575 -13z m2586 -1541 c1
-533 1 -973 0 -977 0 -3 7 -30 15 -60 45 -150 142 -253 289 -304 46 -17 119
-18 1035 -19 762 0 986 -3 990 -12 4 -10 5 -3383 1 -3469 l-1 -21 -2327 1
c-1847 0 -2329 3 -2333 13 -4 9 -5 5737 -1 5803 1 14 127 16 1166 16 l1165 0
1 -971z m666 899 c74 -35 95 -55 817 -778 643 -643 745 -749 768 -798 15 -32
30 -68 33 -80 l6 -23 -843 2 c-464 0 -848 2 -853 2 -8 1 -11 269 -11 856 0
470 2 855 3 855 2 0 38 -16 80 -36z"/>
</g>
</svg>
