<?xml version="1.0" encoding="iso-8859-1"?>
<!-- Generator: Adobe Illustrator 19.0.0, SVG Export Plug-In . SVG Version: 6.00 Build 0)  -->
<svg version="1.1" id="Capa_1" xmlns="http://www.w3.org/2000/svg" xmlns:xlink="http://www.w3.org/1999/xlink" x="0px" y="0px"
	 viewBox="0 0 511.999 511.999" style="enable-background:new 0 0 511.999 511.999;" xml:space="preserve">
<g transform="translate(1)">
	<g>
		<g>
			<path d="M396.423,188.352l-31.721-23.768v-63.991c0.009-10.75-1.719-21.437-5.119-31.63c-5.512,2.742-11.582,4.178-17.735,4.205
				c-22.708-0.037-41.1-18.429-41.137-41.137c-0.027-7.889,2.258-15.614,6.582-22.214c-13.493-6.39-28.22-9.727-43.148-9.781
				h-18.283c-14.928,0.046-29.664,3.382-43.148,9.781c4.324,6.6,6.609,14.325,6.582,22.214c0.082,14.169-7.176,27.379-19.188,34.902
				c-12.012,7.523-27.059,8.291-39.775,2.029c-3.328,10.211-5.028,20.888-5.028,31.63v63.991l-31.721,23.768
				c-3.026,2.304-4.818,5.887-4.845,9.69v0.091c0.027,6.701,5.458,12.131,12.158,12.158h24.408v13.712l18.283,13.712
				c11.482,8.657,18.247,22.187,18.283,36.566v57.957c0.027,12.131-4.772,23.777-13.347,32.361l-23.22,23.128v60.243
				c0.037,35.323,28.668,63.954,63.991,63.991h91.415c35.323-0.037,63.954-28.668,63.991-63.991v-60.243l-23.22-23.128
				c-8.575-8.584-13.374-20.23-13.347-32.361v-57.957c0.037-14.38,6.801-27.909,18.283-36.566l18.283-13.712v-13.712h24.408
				c6.701-0.027,12.131-5.458,12.158-12.158C401.259,194.294,399.467,190.683,396.423,188.352z M337.277,383.981
				c5.046,0.018,9.123,4.095,9.142,9.142v73.132c0,25.414-69.933,27.425-91.416,27.425c-2.285,0-5.119,0-8.319-0.091
				c-0.274,0-0.548,0.091-0.823,0.091c-0.338-0.009-0.686-0.073-1.006-0.183c-27.79-0.731-81.268-5.028-81.268-27.242v-73.132
				c0.018-5.046,4.095-9.123,9.142-9.142H337.277z M242.845,322.916c-4.488,2.294-9.992,0.53-12.305-3.949
				c-2.313-4.479-0.576-9.983,3.894-12.323c12.944-6.49,28.193-6.49,41.137,0c3.757,1.938,5.695,6.189,4.699,10.293
				c-0.996,4.105-4.68,6.993-8.904,6.984c-1.463-0.018-2.898-0.366-4.205-1.006C259.51,319.076,250.497,319.076,242.845,322.916z
				 M264.145,347.415c-0.037,2.422-0.978,4.735-2.651,6.49l-1.371,1.097c-0.512,0.347-1.06,0.622-1.645,0.823
				c-0.521,0.265-1.07,0.448-1.646,0.549c-1.207,0.247-2.45,0.247-3.657,0c-0.576-0.101-1.124-0.283-1.646-0.549
				c-0.585-0.201-1.134-0.475-1.645-0.823l-1.371-1.097c-0.823-0.878-1.481-1.901-1.92-3.017c-0.978-2.212-0.978-4.735,0-6.948
				c0.439-1.115,1.097-2.139,1.92-3.017c0.439-0.393,0.896-0.759,1.371-1.097c0.512-0.347,1.06-0.622,1.645-0.823
				c0.521-0.265,1.07-0.448,1.646-0.549c1.207-0.274,2.45-0.274,3.657,0c0.576,0.101,1.124,0.283,1.646,0.549
				c0.585,0.201,1.134,0.475,1.645,0.823c0.475,0.338,0.932,0.704,1.371,1.097C263.167,342.68,264.108,344.992,264.145,347.415z
				 M226.39,290.189c-4.489,2.231-9.937,0.421-12.195-4.05s-0.494-9.928,3.967-12.222c23.192-11.61,50.489-11.61,73.681,0
				c2.176,1.079,3.821,2.98,4.58,5.284c0.759,2.304,0.558,4.808-0.558,6.966c-1.554,3.072-4.699,5.01-8.136,5.028
				c-1.435,0.027-2.852-0.32-4.114-1.006C265.589,281.23,244.418,281.23,226.39,290.189z M210.027,257.371
				c-4.498,2.276-9.973,0.475-12.25-4.022c-2.276-4.498-0.475-9.973,4.022-12.25c33.522-16.638,72.886-16.638,106.408,0
				c2.167,1.079,3.812,2.989,4.562,5.284c0.759,2.304,0.558,4.808-0.539,6.966c-1.517,3.099-4.68,5.055-8.136,5.028
				c-1.435,0.018-2.852-0.329-4.114-1.006C271.623,243.384,238.384,243.384,210.027,257.371z M346.419,210.292
				c-0.018,5.037-4.095,9.123-9.142,9.142c-4.278,0-7.99-2.962-8.959-7.13c-5.028-4.022-30.807-11.153-73.315-11.153
				c-42.508,0-68.287,7.13-73.315,11.153c-1.033,4.543-5.311,7.587-9.946,7.076c-4.635-0.512-8.145-4.424-8.154-9.087v-91.415
				c0-25.414,69.933-27.425,91.415-27.425c21.483,0,91.416,2.011,91.416,27.425V210.292z"/>
			<path d="M346.419,332.24c0,7.268,2.898,14.243,8.045,19.38l10.239,10.33v-51.101h-18.283V332.24z"/>
			<path d="M341.848,54.885c3.583-0.018,7.121-0.859,10.33-2.468c-0.823-1.463-1.554-3.017-2.468-4.388
				c-0.64-1.188-1.371-2.377-2.103-3.474c-2.45-3.675-5.138-7.194-8.045-10.513c0-0.091-0.091-0.091-0.183-0.183
				c-2.88-3.273-5.997-6.326-9.324-9.142c-1.006-0.914-2.011-1.645-3.108-2.56c-1.28-1.006-2.651-1.92-4.022-2.925
				c-2.578,3.766-3.949,8.237-3.931,12.798C319.003,44.656,329.224,54.876,341.848,54.885z"/>
			<path d="M191.013,32.031c-0.018-4.552-1.417-8.977-4.022-12.707c-12.021,8.703-21.958,19.974-29.07,33.001
				c3.154,1.682,6.664,2.56,10.239,2.56C180.783,54.876,191.003,44.656,191.013,32.031z"/>
			<path d="M328.136,464.427v-62.163h-22.214l-43.788,72.95C299.706,474.483,322.834,468.266,328.136,464.427z"/>
			<path d="M238.823,402.264h-56.952v62.163c5.119,2.733,10.641,4.617,16.363,5.576L238.823,402.264z"/>
			<path d="M234.506,474.798c2.048,0.124,4.157,0.233,6.328,0.324l0,0h0l43.697-72.858h-24.317l-42.6,71.03
				C222.757,473.911,228.361,474.425,234.506,474.798z"/>
			<path d="M346.419,274.283v18.283h18.283v-45.708l-7.313,5.485C350.496,257.535,346.437,265.653,346.419,274.283z"/>
			<path d="M320.257,117.294c-0.96-0.304-1.994-0.61-3.103-0.916c-2.771-0.763-6.002-1.523-9.68-2.241
				c-2.943-0.574-6.171-1.122-9.679-1.624c-4.385-0.627-9.205-1.183-14.447-1.63c-1.048-0.089-2.114-0.174-3.196-0.254
				c-7.574-0.562-15.97-0.894-25.149-0.894c-9.179,0-17.574,0.332-25.149,0.894c-2.164,0.16-4.261,0.34-6.29,0.535
				c-3.044,0.293-5.935,0.623-8.669,0.981c-5.47,0.717-10.316,1.547-14.515,2.427c-1.4,0.293-2.727,0.592-3.982,0.894
				c-7.529,1.81-12.435,3.73-14.526,5.239V192.1c22.305-8.319,58.689-9.233,73.132-9.233c14.444,0,50.827,0.914,73.132,9.233
				v-71.396c-0.697-0.503-1.707-1.051-3.022-1.626C323.798,118.503,322.177,117.902,320.257,117.294z"/>
			<path d="M163.588,274.283c-0.018-8.63-4.077-16.747-10.97-21.94l-7.313-5.485v45.708h18.283V274.283z"/>
			<path d="M145.305,361.95l10.239-10.33c5.147-5.138,8.045-12.113,8.045-19.38v-21.391h-18.283V361.95z"/>
			<path d="M423.235,264.51c-3.419-3.721-9.224-3.94-12.917-0.494c-3.711,3.428-3.931,9.215-0.494,12.917
				c12.35,13.347,12.954,33.997,1.39,48.03c-3.209,3.894-2.66,9.653,1.243,12.862c1.709,1.408,3.757,2.093,5.805,2.093
				c2.642,0,5.266-1.134,7.066-3.328C442.679,315.529,441.784,284.539,423.235,264.51z"/>
			<path d="M450.112,239.718c-3.419-3.711-9.224-3.931-12.917-0.494c-3.711,3.437-3.931,9.224-0.494,12.926
				c25.843,27.918,25.743,71.551-0.247,99.35c-3.446,3.684-3.245,9.471,0.439,12.917c1.764,1.655,4.004,2.468,6.244,2.468
				c2.441,0,4.872-0.978,6.673-2.916C482.308,329.214,482.445,274.63,450.112,239.718z"/>
			<path d="M476.997,214.963c-3.437-3.711-9.215-3.931-12.917-0.503c-3.721,3.428-3.94,9.215-0.512,12.917
				c39.656,42.865,38.733,109.123-2.103,150.854c-3.52,3.602-3.465,9.388,0.146,12.926c1.773,1.737,4.086,2.605,6.39,2.605
				c2.377,0,4.735-0.914,6.527-2.742C522.184,342.314,523.271,264.986,476.997,214.963z"/>
			<path d="M99.688,264.017c-3.711-3.446-9.489-3.209-12.917,0.494c-18.548,20.038-19.444,51.019-2.084,72.081
				c1.81,2.194,4.424,3.328,7.057,3.328c2.048,0,4.105-0.695,5.823-2.093c3.894-3.209,4.452-8.968,1.234-12.862
				c-11.564-14.032-10.97-34.683,1.39-48.03C103.619,273.231,103.391,267.445,99.688,264.017z"/>
			<path d="M73.315,252.169c3.428-3.711,3.209-9.498-0.494-12.926c-3.721-3.437-9.498-3.218-12.926,0.494
				c-32.334,34.921-32.197,89.487,0.302,124.252c1.792,1.929,4.233,2.898,6.673,2.898c2.24,0,4.479-0.814,6.244-2.468
				c3.684-3.446,3.876-9.233,0.43-12.917C47.563,323.702,47.454,280.069,73.315,252.169z"/>
			<path d="M46.43,227.368c3.428-3.702,3.2-9.489-0.503-12.917c-3.711-3.428-9.489-3.209-12.917,0.503
				c-46.284,50.023-45.196,127.351,2.459,176.057c1.792,1.828,4.169,2.752,6.536,2.752c2.313,0,4.616-0.868,6.39-2.614
				c3.611-3.538,3.675-9.315,0.146-12.926C7.706,336.491,6.783,270.224,46.43,227.368z"/>
		</g>
	</g>
</g>
<g>
</g>
<g>
</g>
<g>
</g>
<g>
</g>
<g>
</g>
<g>
</g>
<g>
</g>
<g>
</g>
<g>
</g>
<g>
</g>
<g>
</g>
<g>
</g>
<g>
</g>
<g>
</g>
<g>
</g>
</svg>
