<svg xmlns="http://www.w3.org/2000/svg" viewBox="0 0 537.55 260">
	<style>
		.gradient {
			background-color: #55e3ca;
			background-image: linear-gradient(315deg, #55e3ca 0%, #b07ec5 100%);
		}
	</style>

  <defs>
    <linearGradient id="a" x1="503.2" y1="294.2" x2="34.35" y2="-34.09" gradientUnits="userSpaceOnUse">
      <stop offset="0" stop-color="#55e3ca"/>
      <stop offset="1" stop-color="#b07ec5"/>
    </linearGradient>
  </defs>
  <path d="M537.55 98V22a21.87 21.87 0 0 0-22.13-22H22.12A21.87 21.87 0 0 0 0 22v76a21.93 21.93 0 0 0 8.79 17.59A22 22 0 0 0 0 133.38v104.45A21.68 21.68 0 0 0 22.18 260h493.19a21.69 21.69 0 0 0 22.18-22.17V133.38a22 22 0 0 0-8.79-17.79A21.93 21.93 0 0 0 537.55 98z" style="fill:url(#a)"/>

  <path d="M22.12 100h9.6a1.8 1.8 0 0 0 2-2V75.9l3.7-7.1L50 98.51a2.21 2.21 0 0 0 2.3 1.5h10.6c1.6 0 2.2-1 1.5-2.3L46.33 57.3l17-34.9c.7-1.4.1-2.4-1.4-2.4h-10.5a2.37 2.37 0 0 0-2.3 1.5L33.72 53V22a1.8 1.8 0 0 0-2-2h-9.6a1.8 1.8 0 0 0-2 2v76a1.8 1.8 0 0 0 2 2zM92.32 98.41V73.2h6.9l6.71 25.41a1.55 1.55 0 0 0 1.69 1.4H118c1.1 0 1.7-.6 1.4-1.8L112.53 72c4.8-2.1 7.3-6.5 7.3-13.2V34.4c0-9.4-5-14.4-14.4-14.4H80.32a1.47 1.47 0 0 0-1.6 1.6v76.81a1.47 1.47 0 0 0 1.6 1.6h10.4a1.47 1.47 0 0 0 1.6-1.6zm0-65.21h9.91c2.6 0 4 1.4 4 4V56c0 2.6-1.4 4-4 4h-9.91zM167.82 98.61a1.54 1.54 0 0 0 1.6 1.4H180c1.2 0 1.59-.6 1.4-1.71l-16.58-76.9a1.56 1.56 0 0 0-1.7-1.4h-13.9a1.56 1.56 0 0 0-1.7 1.4l-16.6 76.9c-.3 1.11.2 1.71 1.3 1.71h10.7a1.54 1.54 0 0 0 1.6-1.4l2.7-14.61H165zm-18.1-26.21l6.4-34.9 6.4 34.9zM218 20h-11.2c-9.3 0-14.4 5-14.4 14.4V58a3.57 3.57 0 0 0 2.7 3.7l23.7 7.8v13.3c0 2.7-1.4 4-4 4H210c-2.5 0-4-1.3-4-4v-7.7a1.39 1.39 0 0 0-1.6-1.6H194a1.43 1.43 0 0 0-1.6 1.6v10.5c0 9.41 5.1 14.41 14.4 14.41H218c9.4 0 14.4-5 14.4-14.41V62.5a3.67 3.67 0 0 0-2.6-3.7L206 51V37.2a3.63 3.63 0 0 1 4-4h4.8c2.7 0 4 1.4 4 4V45a1.47 1.47 0 0 0 1.6 1.6h10.41a1.42 1.42 0 0 0 1.59-1.6V34.4C232.42 25 227.42 20 218 20zM278.62 100h9.91a1.46 1.46 0 0 0 1.59-1.6V21.6a1.46 1.46 0 0 0-1.59-1.6h-10.41a1.43 1.43 0 0 0-1.6 1.6v42.2h-.6l-15.2-42.5a1.72 1.72 0 0 0-1.8-1.3H249a1.47 1.47 0 0 0-1.6 1.6v76.81A1.47 1.47 0 0 0 249 100h10.4a1.43 1.43 0 0 0 1.6-1.6V56h.5l15.3 42.71a1.72 1.72 0 0 0 1.82 1.29zM345.12 85.6V34.4c0-9.4-5-14.4-14.4-14.4h-11.2c-9.4 0-14.4 5-14.4 14.4v51.2c0 9.41 5 14.41 14.4 14.41h11.2c9.4-.01 14.4-5.01 14.4-14.41zm-22.7 1.5c-2.6 0-4-1.3-4-4V36.9c0-2.6 1.4-4 4-4h5.8c2.6 0 4 1.4 4 4v46.2c0 2.7-1.4 4-4 4zM361.72 100h24c9.4 0 14.4-5 14.4-14.41V34.5c0-9.4-5-14.5-14.4-14.5h-24a1.43 1.43 0 0 0-1.6 1.6v76.81a1.39 1.39 0 0 0 1.6 1.59zm12-66.81h9.2c2.6 0 4 1.4 4 4.1V82.8c0 2.7-1.4 4-4 4h-9.2zM445.12 21.4a1.56 1.56 0 0 0-1.7-1.4h-13.9a1.56 1.56 0 0 0-1.7 1.4l-16.6 76.9c-.3 1.11.2 1.71 1.3 1.71h10.7a1.54 1.54 0 0 0 1.6-1.4l2.7-14.61h17.8l2.8 14.61a1.54 1.54 0 0 0 1.6 1.4h10.6c1.2 0 1.6-.6 1.4-1.71zM430 72.4l6.4-34.9 6.4 34.9zM477.32 100h10.4a1.47 1.47 0 0 0 1.6-1.6V73.2h6.9l6.7 25.41a1.57 1.57 0 0 0 1.7 1.4H515c1.1 0 1.7-.6 1.4-1.8L509.52 72c4.8-2.1 7.3-6.5 7.3-13.2V34.4c0-9.4-5-14.4-14.4-14.4h-25.1a1.47 1.47 0 0 0-1.6 1.6v76.81a1.47 1.47 0 0 0 1.6 1.59zm12-66.81h9.9c2.6 0 4 1.4 4 4V56c0 2.6-1.4 4-4 4h-9.9zM54.82 131.2H22.18a2 2 0 0 0-2.18 2.18v104.45c0 1.5.68 2.18 2.18 2.18h32.64c12.78 0 19.58-6.8 19.58-19.59v-69.5c0-12.78-6.8-19.72-19.58-19.72zm1.63 85.41c0 3.67-1.91 5.44-5.44 5.44H38.5v-72.89H51c3.53 0 5.44 1.9 5.44 5.57zM140.09 131.2H90a2 2 0 0 0-2 2.18v104.45a2 2 0 0 0 2 2.17h50.05c1.63 0 2.17-.82 2.17-2.18v-13.6c0-1.5-.54-2.18-2.17-2.18h-34v-27.46h26a2 2 0 0 0 2.18-2.31V178.8a2 2 0 0 0-2.18-2.31h-26v-27.2h34c1.63 0 2.17-.95 2.17-2.31v-13.6c.04-1.38-.5-2.18-2.13-2.18zM216.25 131.2h-12.92a2.84 2.84 0 0 0-3 2.45l-14.41 72.9-14.28-72.9a2.83 2.83 0 0 0-3-2.45h-12.91c-2 0-2.86 1.09-2.45 3l22.85 103.36a2.83 2.83 0 0 0 3 2.45h13.6a2.83 2.83 0 0 0 3-2.45l23-103.36c.37-1.91-.44-3-2.48-3zM298.53 131.2h-32.64a2 2 0 0 0-2.18 2.18v104.45c0 1.5.68 2.18 2.18 2.18h32.64c12.78 0 19.58-6.8 19.58-19.59v-69.5c0-12.78-6.8-19.72-19.58-19.72zm1.63 85.41c0 3.67-1.91 5.44-5.44 5.44h-12.51v-72.89h12.51c3.53 0 5.44 1.9 5.44 5.57zM372.51 133.11a2.12 2.12 0 0 0-2.31-1.91h-18.9a2.13 2.13 0 0 0-2.32 1.91l-22.57 104.58c-.41 1.5.27 2.32 1.77 2.32h14.55a2.09 2.09 0 0 0 2.17-1.91l3.68-19.86h24.2l3.81 19.86a2.09 2.09 0 0 0 2.18 1.91h14.41c1.64 0 2.18-.82 1.91-2.32zM352 202.47l8.7-47.47 8.7 47.47zM453.3 131.2h-13.6a3 3 0 0 0-3.13 2.18l-15.23 39-15.24-39a3 3 0 0 0-3.1-2.18h-13.63c-2 0-3 1.23-2.17 3.13l24.89 60.52v42.44a2.44 2.44 0 0 0 2.72 2.72h13.05a2.44 2.44 0 0 0 2.72-2.72v-42.44l24.89-60.52c.82-1.9-.13-3.13-2.17-3.13zM500.62 167.38h14.15a1.94 1.94 0 0 0 2.17-2.18v-14.41c0-12.79-6.8-19.59-19.58-19.59h-15.23c-12.65 0-19.59 6.8-19.59 19.59v32.09a4.86 4.86 0 0 0 3.68 5l32.23 10.6v18.09c0 3.67-1.91 5.44-5.44 5.44h-6.53c-3.4 0-5.44-1.77-5.44-5.44v-10.43c0-1.5-.68-2.17-2.18-2.17h-14.14a1.94 1.94 0 0 0-2.18 2.17v14.28c0 12.79 6.94 19.59 19.59 19.59h15.23c12.78 0 19.58-6.8 19.58-19.59V189a5 5 0 0 0-3.53-5L481 173.36V154.6c0-3.54 2-5.44 5.44-5.44H493c3.67 0 5.44 1.9 5.44 5.44v10.6a2 2 0 0 0 2.18 2.18z" style="fill:#fff"/>
</svg>
