<svg id="SvgjsSvg1013" xmlns="http://www.w3.org/2000/svg" version="1.1" xmlns:xlink="http://www.w3.org/1999/xlink" xmlns:svgjs="http://svgjs.com/svgjs" width="162" height="162" viewBox="0 0 162 162"><title>Rounded Rectangle 2</title><desc>Created with Avocode.</desc><defs id="SvgjsDefs1014"></defs><path id="SvgjsPath1015" d="M194 722H336C341.523 722 346 726.477 346 732V874C346 879.523 341.523 884 336 884H194C188.477 884 184 879.523 184 874V732C184 726.477 188.477 722 194 722Z " fill="#ffffff" fill-opacity="1" transform="matrix(1,0,0,1,-184,-722)"></path><path id="SvgjsPath1016" d="M297.593 809.037L289.57 794.826C289.207 794.097 288.481 793.734 287.74 793.734H271.336L264.039 780.991L272.062 766.78C272.803 766.054 272.425 764.5989999999999 271.336 763.858C270.244 763.4949999999999 269.14 763.858 268.413 764.947L260.39300000000003 778.798H245.43900000000002L237.40400000000002 764.947C236.67700000000002 763.858 235.22500000000002 763.495 234.48400000000004 763.858C233.39500000000004 764.5989999999999 233.02900000000002 766.054 233.77000000000004 766.78L241.79300000000003 780.991L233.77000000000004 794.826C233.02900000000002 795.553 233.02900000000002 796.293 233.77000000000004 797.02L241.79300000000003 811.23L234.12100000000004 823.9730000000001H221.36300000000003C220.25600000000003 823.9730000000001 219.18100000000004 825.066 219.18100000000004 826.1550000000001C219.18100000000004 827.2440000000001 220.25600000000003 828.3330000000001 221.36300000000003 828.3330000000001H234.12100000000004L242.14100000000005 842.195C242.51900000000003 842.9240000000001 243.24500000000006 843.288 243.97200000000004 843.288H261.482C262.209 843.288 262.95000000000005 842.924 263.298 842.195L271.336 828.3330000000001H287.74C288.481 828.3330000000001 289.207 827.9850000000001 289.57 827.244L297.593 813.033H309.625C311.092 813.033 311.818 812.319 311.818 811.23C311.818 809.763 311.092 809.037 309.625 809.037ZM245.439 783.172H260.393L267.68699999999995 795.9300000000001L260.393 809.037H245.43899999999996L237.78099999999998 795.9300000000001ZM260.393 838.913H245.43899999999996L237.78099999999998 826.155L245.43899999999996 813.033H260.393L267.68699999999995 826.155Z " fill="#fa6900" fill-opacity="1" transform="matrix(1,0,0,1,-184,-722)"></path><path id="SvgjsPath1017" d="M297.593 809.037L289.57 794.826C289.207 794.097 288.481 793.734 287.74 793.734H271.336L264.039 780.991L272.062 766.78C272.803 766.054 272.425 764.5989999999999 271.336 763.858C270.244 763.4949999999999 269.14 763.858 268.413 764.947L260.39300000000003 778.798H245.43900000000002L237.40400000000002 764.947C236.67700000000002 763.858 235.22500000000002 763.495 234.48400000000004 763.858C233.39500000000004 764.5989999999999 233.02900000000002 766.054 233.77000000000004 766.78L241.79300000000003 780.991L233.77000000000004 794.826C233.02900000000002 795.553 233.02900000000002 796.293 233.77000000000004 797.02L241.79300000000003 811.23L234.12100000000004 823.9730000000001H221.36300000000003C220.25600000000003 823.9730000000001 219.18100000000004 825.066 219.18100000000004 826.1550000000001C219.18100000000004 827.2440000000001 220.25600000000003 828.3330000000001 221.36300000000003 828.3330000000001H234.12100000000004L242.14100000000005 842.195C242.51900000000003 842.9240000000001 243.24500000000006 843.288 243.97200000000004 843.288H261.482C262.209 843.288 262.95000000000005 842.924 263.298 842.195L271.336 828.3330000000001H287.74C288.481 828.3330000000001 289.207 827.9850000000001 289.57 827.244L297.593 813.033H309.625C311.092 813.033 311.818 812.319 311.818 811.23C311.818 809.763 311.092 809.037 309.625 809.037ZM245.439 783.172H260.393L267.68699999999995 795.9300000000001L260.393 809.037H245.43899999999996L237.78099999999998 795.9300000000001ZM260.393 838.913H245.43899999999996L237.78099999999998 826.155L245.43899999999996 813.033H260.393L267.68699999999995 826.155Z " fill="#69d2e7" fill-opacity="1" transform="matrix(1,0,0,1,-184,-722)"></path></svg>