<?xml version="1.0" encoding="utf-8"?>
<svg xmlns="http://www.w3.org/2000/svg"
	xmlns:xlink="http://www.w3.org/1999/xlink"
	width="178px" height="178px" viewBox="0 0 178 178">
<circle cx="89.00" cy="89.00" r="89.00" fill="rgb(255,255,255)"/><path fillRule="evenodd" d="M 125.61 114.75C 125.61 114.75 107.61 106.98 107.61 106.98 107.18 106.77 106.71 106.25 106.3 105.56 106.3 105.56 118.39 105.55 118.39 105.55 118.39 105.55 119.09 105.62 120.17 105.62 122.15 105.62 125.05 105.4 127.57 104.31 129.08 103.66 130.21 102.38 130.66 100.8 131.12 99.2 130.83 97.5 129.88 96.14 126.42 91.24 118.36 78.45 118.11 65.47 117.72 49.9 104.41 40.25 89.5 43.7 74.6 40.25 61.28 49.9 60.89 65.47 60.64 78.45 52.58 91.24 49.13 96.14 48.17 97.5 47.88 99.2 48.34 100.8 48.79 102.38 49.92 103.66 51.43 104.31 53.95 105.4 56.85 105.62 58.83 105.62 59.92 105.62 60.61 105.55 60.61 105.55 60.61 105.55 72.7 105.56 72.7 105.56 72.29 106.25 71.82 106.77 71.39 106.98 71.39 106.98 53.39 114.75 53.39 114.75 48.18 117.35 45 122.47 45 128.18 45 128.18 45 135 45 135 74.67 135 104.33 135 134 135 134 135 134 128.18 134 128.18 134 122.47 130.82 117.35 125.61 114.75 125.61 114.75 125.61 114.75 125.61 114.75Z" fill="rgb(105,209,231)"/></svg>