<?xml version="1.0" standalone="no"?>
<!DOCTYPE svg PUBLIC "-//W3C//DTD SVG 20010904//EN"
 "http://www.w3.org/TR/2001/REC-SVG-20010904/DTD/svg10.dtd">
<svg version="1.0" xmlns="http://www.w3.org/2000/svg"
 width="16.000000pt" height="16.000000pt" viewBox="0 0 16.000000 16.000000"
 preserveAspectRatio="xMidYMid meet">
<metadata>
Created by potrace 1.11, written by Peter Selinger 2001-2013
</metadata>
<g transform="translate(0.000000,16.000000) scale(0.006250,-0.006250)"
fill="#000000" stroke="none">
<path d="M432 2545 c-156 -37 -300 -153 -375 -301 -58 -115 -57 -95 -54 -989
l2 -820 29 -70 c36 -87 72 -140 139 -206 60 -59 113 -92 206 -128 l66 -26 798
-3 c482 -2 818 1 850 7 205 38 366 174 438 371 l24 65 0 840 0 840 -28 69
c-32 80 -89 162 -156 224 -56 51 -186 117 -261 131 -86 16 -1610 13 -1678 -4z"/>
</g>
</svg>
