<svg xmlns="http://www.w3.org/2000/svg" viewBox="0 0 173.4 54.3">
  <defs>
    <style>
      .cls-1,.cls-2{fill:#fff}.cls-2{fill-rule:evenodd}
    </style>
  </defs>
  <g id="Group_3151" data-name="Group 3151" transform="translate(4062.875 -4159.795)">
    <g id="Group_2786" data-name="Group 2786" transform="translate(-4062.875 4159.795)">
      <path id="Path_2340" d="M7 271c-1.7 0-2.9-1.2-3.3-3.2L.2 253.6a3.4 3.4 0 0 1-.2-1.4 1.8 1.8 0 0 1 .8-1.6 2.4 2.4 0 0 1 1.7-.6 2 2 0 0 1 2.4 2l2.7 13 3.6-13a2.6 2.6 0 0 1 2.7-2c1.6 0 2.6.6 2.8 2l3.7 13 2.5-12.6c.4-1.6 1.2-2.4 2.6-2.4a2.4 2.4 0 0 1 1.8.6 2.5 2.5 0 0 1 .7 1.6l-.2 1.4-3.9 14.2a5.4 5.4 0 0 1-1 2.4 4.3 4.3 0 0 1-2.5.8 3.5 3.5 0 0 1-3.3-2.6l-3.2-11.9-3.1 11.5c-.6 2-1.8 3-3.7 3zm37.1-21a3.4 3.4 0 0 1 3.5 2.6l5.7 14.8a5 5 0 0 1 .4 1.4 2.5 2.5 0 0 1-.8 1.6 3.1 3.1 0 0 1-1.7.6 3 3 0 0 1-2.8-2.2l-.8-2.6H40l-1 2.6c-.4 1.4-1.2 2.2-2.3 2.2a2.4 2.4 0 0 1-1.8-.6 2.3 2.3 0 0 1-.6-1.6 3 3 0 0 1 .2-1.4l5.7-14.4a4.1 4.1 0 0 1 4-3zm-.2 5l-2.5 7.3h4.9l-2.4-7.4zm18.4-1.6c0-2.2.8-3.4 2.6-3.4 1.6 0 2.3 1.2 2.3 3.4v13h4.4c2.3 0 3.5.6 3.5 2.2 0 1.4-1.2 2-3.5 2h-6a4 4 0 0 1-2.5-.6 2.5 2.5 0 0 1-.8-2.2zm26.1 14.2c0 2.2-.8 3.4-2.5 3.4-1.6 0-2.4-1.2-2.4-3.4v-14.2c0-2.2.8-3.4 2.4-3.4 1.7 0 2.5 1.2 2.5 3.4zm9.8-7.1a11 11 0 0 1 2.8-7.5 10.3 10.3 0 0 1 7.6-3 10.4 10.4 0 0 1 7.8 3c2 2 2.8 4.3 2.8 7.5a10.2 10.2 0 0 1-2.8 7.5 10.4 10.4 0 0 1-7.8 3 10.3 10.3 0 0 1-7.6-3 11 11 0 0 1-2.8-7.5zm5.3 0a6.5 6.5 0 0 0 1.2 4.2 4.6 4.6 0 0 0 3.9 2 4.7 4.7 0 0 0 4.1-2 8 8 0 0 0 0-8.4 4.7 4.7 0 0 0-4.1-2 4.3 4.3 0 0 0-4 2 6.5 6.5 0 0 0-1 4.2zm28.2-6a12.1 12.1 0 0 1-3.3-.1c-1.4-.2-2.2-.8-2.2-2 0-1.4 1.2-2.2 3.6-2.2h8.8c2.4 0 3.5.8 3.5 2.2 0 1.2-.8 1.8-2 2a14 14 0 0 1-3.5.2v13c0 2.2-.7 3.4-2.3 3.4-1.8 0-2.6-1.2-2.6-3.4z" class="cls-1" data-name="Path 2340" transform="translate(0 -216.73)"/>
      <path id="Path_5041" d="M2.8 18.3a3.4 3.4 0 1 1 3.4 3.4H2.8zm9.6 0a6.3 6.3 0 0 0-6.2-6.2 6.2 6.2 0 0 0-3 .8 6.5 6.5 0 0 1 1.5-2 6.4 6.4 0 0 1 10.9 4.5v6.4h-4.2a6.2 6.2 0 0 0 1-3.4zm6 3.5v-6.4A9.2 9.2 0 0 0 3.7 7.9a9.7 9.7 0 0 1 1.8-2.3 9.5 9.5 0 0 1 16.2 6.7v11a10 10 0 0 0 0 1.3 9.2 9.2 0 0 0 9.2 8 9.1 9.1 0 0 0 5.3-1.8 9.8 9.8 0 0 1-1.7 2.4 9.5 9.5 0 0 1-16.2-6.7zm6.2-4.8h4.1a6.2 6.2 0 0 0 8.1 8.9 6.7 6.7 0 0 1-1.3 2 6.4 6.4 0 0 1-11-4.5zm0-2.8v-2a12.3 12.3 0 0 0-24.6 0v10c0 1.8 1 2.4 2.6 2.4h13v1.9a12.3 12.3 0 0 0 24.5 0v-9.8a2.4 2.4 0 0 0-2.6-2.5h-13zm9.3 9.6a3.4 3.4 0 1 1 0-6.8h3.4v3.4a3.4 3.4 0 0 1-3.4 3.4z" class="cls-2" data-name="Path 5041" transform="translate(133.238 0)"/>
    </g>
    <path id="Path_5152" d="M2.8 18.3a3.4 3.4 0 1 1 3.4 3.4H2.8zm9.6 0a6.3 6.3 0 0 0-6.2-6.2 6.2 6.2 0 0 0-3 .8 6.5 6.5 0 0 1 1.5-2 6.4 6.4 0 0 1 10.9 4.5v6.4h-4.2a6.2 6.2 0 0 0 1-3.4zm6 3.5v-6.4A9.2 9.2 0 0 0 3.7 7.9a9.7 9.7 0 0 1 1.8-2.3 9.5 9.5 0 0 1 16.2 6.7v11a10 10 0 0 0 0 1.3 9.2 9.2 0 0 0 9.2 8 9.1 9.1 0 0 0 5.3-1.8 9.8 9.8 0 0 1-1.7 2.4 9.5 9.5 0 0 1-16.2-6.7zm6.2-4.8h4.1a6.2 6.2 0 0 0 8.1 8.9 6.7 6.7 0 0 1-1.3 2 6.4 6.4 0 0 1-11-4.5zm0-2.8v-2a12.3 12.3 0 0 0-24.6 0v10c0 1.8 1 2.4 2.6 2.4h13v1.9a12.3 12.3 0 0 0 24.5 0v-9.8a2.4 2.4 0 0 0-2.6-2.5h-13zm9.3 9.6a3.4 3.4 0 1 1 0-6.8h3.4v3.4a3.4 3.4 0 0 1-3.4 3.4z" class="cls-2" data-name="Path 5152" transform="translate(-3929.638 4159.795)"/>
  </g>
</svg>
