<svg xmlns="http://www.w3.org/2000/svg" viewBox="0 0 60.6 58.5">
  <path fill='#072169' d="M4.3 27.7a5.1 5.1 0 1 1 5 5h-5zm14.5 0a9.4 9.4 0 0 0-9.4-9.4A9.3 9.3 0 0 0 5 19.4a9.7 9.7 0 0 1 2-3 9.7 9.7 0 0 1 16.5 6.8V33h-6.3a9.3 9.3 0 0 0 1.6-5.2zm8.9 5.2v-9.7A13.8 13.8 0 0 0 5.7 12a14.6 14.6 0 0 1 2.7-3.6 14.3 14.3 0 0 1 24.5 10.1v16.8a15 15 0 0 0 0 1.8 13.9 13.9 0 0 0 13.8 12 13.8 13.8 0 0 0 8-2.6 14.8 14.8 0 0 1-2.5 3.6A14.3 14.3 0 0 1 27.7 40zm9.4-7.3h6.2a9.4 9.4 0 0 0 12.3 13.5 10 10 0 0 1-2 3A9.6 9.6 0 0 1 37 35.3zm0-4.2v-2.9a18.5 18.5 0 0 0-37.1 0v15C0 36.2 1.6 37 4 37h19.5V40a18.5 18.5 0 0 0 37 0V25.2a3.6 3.6 0 0 0-3.9-3.8H37zM51 36a5.1 5.1 0 1 1 0-10.3h5.2v5.1a5.1 5.1 0 0 1-5.1 5.2z"/>
</svg>
