<svg xmlns="http://www.w3.org/2000/svg" viewBox="0 0 460 460">
  <path fill='#a07e41' d="M458.594 93.698A10 10 0 0 0 450 88.811H313.701a10 10 0 0 0-8.788 5.229l-33.063 60.904-33.063-60.904a10 10 0 0 0-17.576 0l-33.063 60.904-33.063-60.904a10 10 0 0 0-8.788-5.229H10a10.002 10.002 0 0 0-8.789 14.771l20.239 37.282a9.986 9.986 0 0 0-4.337 8.239c0 5.523 4.478 10 10 10h4.238l12.921 23.802a9.989 9.989 0 0 0-4.423 8.301c0 5.523 4.478 10 10 10h4.358l20.017 36.875a10.002 10.002 0 0 0 8.789 5.229h29.767l66.582 122.65a10 10 0 0 0 17.576 0L230 305.056l33.063 60.904a10 10 0 0 0 17.576 0l66.582-122.65h29.767c3.667 0 7.039-2.007 8.789-5.229l20.017-36.875h4.358c5.522 0 10-4.477 10-10a9.989 9.989 0 0 0-4.423-8.301l12.921-23.802h4.238c5.522 0 10-4.477 10-10a9.988 9.988 0 0 0-4.337-8.239l20.239-37.282a10.005 10.005 0 0 0-.196-9.884zm-318.245 15.114l39.013 71.864a10 10 0 0 0 17.576 0L230 119.772l33.063 60.904a10 10 0 0 0 17.576 0l39.013-71.864h113.542l-16.444 30.292h-80.058a10 10 0 0 0-8.788 5.229l-22.19 40.877a9.966 9.966 0 0 0-1.398 2.575l-32.464 59.802-33.063-60.904a10 10 0 0 0-17.576 0l-33.063 60.904-32.464-59.802a9.933 9.933 0 0 0-1.398-2.575l-22.19-40.877a10 10 0 0 0-8.788-5.229H43.251l-16.444-30.292h113.542zm-22.991 50.291l11.999 22.103h-63.25l-11.999-22.103h63.25zm253.679 64.207H341.27a10 10 0 0 0-8.788 5.229L271.85 340.228l-33.063-60.904a10 10 0 0 0-17.576 0l-33.063 60.904-60.632-111.689a10 10 0 0 0-8.788-5.229H88.963l-11.999-22.104h63.251l39.147 72.111a10 10 0 0 0 17.576 0L230 212.414l33.063 60.904a10 10 0 0 0 17.576 0l39.147-72.111h63.251l-12 22.103zm22.856-42.104h-63.251l11.999-22.103h63.251l-11.999 22.103z"/>
</svg>
