<svg xmlns="http://www.w3.org/2000/svg" viewBox="0 0 502.862 502.862">
  <g fill="#00bf7f">
    <path d="M294.274 324.785L123.793 154.336c-18.593-18.593-18.593-48.818 0-67.411l25.267-25.299c18.593-18.593 48.818-18.593 67.411 0l170.481 170.449c8.391-31.751.509-66.902-24.377-91.788L250.192 27.937c-37.249-37.249-97.604-37.249-134.853 0L90.072 53.204c-37.249 37.249-37.249 97.604 0 134.853L202.454 300.44c24.886 24.885 60.038 32.704 91.82 24.345z"/>
    <path d="M412.791 314.774l-112.383-112.32c-24.886-24.886-60.037-32.736-91.788-24.345l170.45 170.449c18.625 18.625 18.625 48.818 0 67.411L353.803 441.3c-18.625 18.561-48.85 18.561-67.411 0L115.943 270.787c-8.391 31.783-.54 66.902 24.345 91.788l112.383 112.351c37.249 37.249 97.572 37.249 134.853 0l25.267-25.331c37.249-37.249 37.249-97.572 0-134.821z"/>
  </g>
</svg>