<svg xmlns="http://www.w3.org/2000/svg" width='100%' viewBox="0 0 512 512">
  <style>
    <![CDATA[
    /*.left-side{
      fill: #2980D9;
    }
    .right-side{
      fill: #1f66af;
    }
    .vein{
      fill: #13406e;
    }*/
    .left-side{
      fill: #7effd4;
    }
    .right-side{
      fill: #32ffbb;
    }
    .vein{
      fill: #00bf7f;
    }
    ]]>
  </style>
  
  <path class='left-side' d="M347.297 113.058c-38.643-53.957-76.655-96.656-78.254-98.448L256 0l-13.042 14.61c-1.599 1.792-39.61 44.492-78.254 98.448-53.317 74.445-80.351 131.985-80.351 171.022 0 94.647 77.001 171.648 171.648 171.648s171.648-77.001 171.648-171.648c-.001-39.037-27.035-96.577-80.352-171.022z"/>
  <path class='right-side' d="M256 455.728c94.647 0 171.648-77.001 171.648-171.648 0-39.037-27.033-96.577-80.351-171.022-38.643-53.957-76.655-96.656-78.254-98.448L256 0"/>
  <path class='vein' d="M338.3 314.55l-24.725-24.727-40.091 40.09V274.46l41.504-41.504-24.725-24.727L256 242.49l-34.262-34.261-24.726 24.727 41.504 41.504v55.453l-40.091-40.09L173.7 314.55l64.816 64.817V512h34.968V379.367"/>
</svg>