<?xml version="1.0" encoding="UTF-8" standalone="no"?>
<!-- Created with Inkscape (http://www.inkscape.org/) -->

<svg
   width="512"
   height="512"
   viewBox="0 0 512 512"
   sodipodi:docname="search.svg">
  <metadata>
    <rdf:RDF>
      <cc:Work
         rdf:about="">
        <dc:format>image/svg+xml</dc:format>
        <dc:type
           rdf:resource="http://purl.org/dc/dcmitype/StillImage" />
        <dc:title></dc:title>
      </cc:Work>
    </rdf:RDF>
  </metadata>
  <defs/>
  <sodipodi:namedview/>
  <path
     d="M 46.417662,511.58448 C 14.406422,504.26647 -5.3894377,469.69743 5.0520623,439.3487 c 4.47145,-12.9965 4.3384,-12.84843 77.2791797,-86.0054 L 152.28061,283.18659 147.24255,271.8433 C 127.35638,227.06916 124.85754,178.31983 140.09994,132.5 159.21282,75.045247 204.04525,30.212818 261.5,11.099943 c 39.4736,-13.1312701 81.5264,-13.1312701 121,0 57.45475,19.112875 102.2872,63.945304 121.4001,121.400057 13.1312,39.4736 13.1312,81.5264 0,121 -19.1239,57.48784 -63.91781,102.2814 -121.4001,121.39917 -45.86669,15.25458 -94.53353,12.76028 -139.3433,-7.14172 l -11.34329,-5.03806 -70.15671,69.94937 c -73.443958,73.22692 -72.955958,72.78952 -86.351168,77.39815 -7.59119,2.61175 -21.0165,3.31703 -28.88787,1.51757 z m 24.18371,-29.5263 c 3.97623,-1.75887 17.0945,-14.35626 71.183718,-68.35721 L 208.09427,347.5 l -4.79714,-3.94009 c -6.16977,-5.06751 -27.85351,-26.7651 -32.34451,-32.36517 L 167.5,306.88947 101.30151,373.19474 c -69.952798,70.06563 -69.479838,69.5314 -70.930988,80.11866 -0.80635,5.883 1.09713,13.54001 4.72905,19.02321 7.53262,11.37218 22.50298,15.47157 35.5018,9.72157 z M 353.25157,350.11654 C 417.6791,336.8581 467.6513,286.0054 479.6412,221.5 c 2.5991,-13.98266 2.5991,-43.01734 0,-57 C 467.4735,99.03788 415.96212,47.526491 350.5,35.358746 c -13.98266,-2.599022 -43.01734,-2.599022 -57,0 C 228.03788,47.526491 176.52649,99.03788 164.35875,164.5 c -2.59903,13.98266 -2.59903,43.01734 0,57 10.70808,57.6092 51.91787,104.98593 107.29738,123.35415 6.51413,2.16059 16.11887,4.64542 21.34387,5.52183 5.225,0.87641 10.625,1.79277 12,2.03636 6.60305,1.16977 38.87195,-0.36558 48.25157,-2.2958 z M 214.32118,199.81127 c -4.00949,-1.93843 -4.75588,-5.80965 -3.44697,-17.87785 5.81142,-53.5815 46.47771,-94.247795 100.05921,-100.059214 12.61987,-1.368744 16.12882,-0.552364 18.10211,4.21158 1.59281,3.845386 -0.20178,8.363684 -3.87132,9.746924 -1.46531,0.55235 -6.49594,1.26045 -11.17917,1.57355 -45.65419,3.05225 -84.52653,41.92459 -87.57878,87.57878 -0.68529,10.25026 -1.74528,13.39277 -5.0209,14.88524 -2.95765,1.3476 -4.17577,1.33742 -7.06418,-0.059 z" />
</svg>
