<svg xmlns="http://www.w3.org/2000/svg" viewBox="0 0 512 512">
  <path d="M171.744 111.744C195.232 84 225.568 67.296 258.72 67.296c74.528 0 134.944 84.48 134.944 188.704S333.248 444.736 258.72 444.736c-33.152 0-63.488-16.736-86.976-44.448 36.736 47.68 91.328 77.92 152.288 77.92 37.504 0 72.576-11.456 102.592-31.36C479.008 399.968 512 331.84 512 256s-32.992-143.968-85.376-190.816c-30.016-19.904-65.088-31.36-102.592-31.36-60.96-.032-115.584 30.24-152.288 77.92" fill="#d32f2f"/>
  <path d="M256 0C114.624 0 0 114.624 0 256c0 137.28 108.096 249.344 243.808 255.712 4.032.192 8.096.288 12.192.288 65.536 0 125.312-24.64 170.592-65.152-30.016 19.904-65.088 31.36-102.592 31.36-60.96 0-115.552-30.24-152.288-77.92-28.32-33.408-46.656-82.784-47.872-138.24v-12.064c1.248-55.424 19.584-104.832 47.872-138.24 36.736-47.68 91.328-77.92 152.288-77.92 37.504 0 72.576 11.456 102.592 31.36C381.568 24.864 322.144.256 256.96 0H256z" fill="#f44336"/>
</svg>