<svg xmlns="http://www.w3.org/2000/svg" viewBox="0 0 286.036 286.036"><path d="M231.641 113.009c-3.924-40.789-37.884-72.792-79.684-72.792-32.36 0-60.053 19.201-72.819 46.752-3.853-1.225-7.849-2.056-12.095-2.056-22.214 0-40.226 18.021-40.226 40.226 0 4.416.885 8.591 2.199 12.551C11.728 147.765 0 166.26 0 187.696c0 32.092 26.013 58.105 58.105 58.105v.018H219.01v-.018c37.035 0 67.026-30.009 67.026-67.044-.009-32.682-23.421-59.83-54.395-65.748zm-46.001 57.926l-33.799 33.316c-6.821 6.838-11.022 6.615-17.646 0l-33.799-33.316c-4.845-7.911-.885-14.383 8.823-14.383h15.921v-35.864c0-4.943 4.005-8.957 8.939-8.957h17.878c4.943 0 8.939 4.014 8.939 8.957v35.864h15.903c9.708 0 13.695 6.472 8.841 14.383z" fill="#39b29d"/></svg>