<svg xmlns="http://www.w3.org/2000/svg" viewBox="0 0 286.036 286.036"><path d="M231.641 113.009c-3.915-40.789-37.875-72.792-79.684-72.792-32.351 0-60.053 19.201-72.819 46.752-3.844-1.216-7.849-2.056-12.095-2.056-22.214 0-40.226 18.021-40.226 40.226 0 4.416.885 8.591 2.199 12.551C11.737 147.765 0 166.269 0 187.705c0 32.092 26.013 58.105 58.105 58.105v.009h160.896v-.009c37.035 0 67.035-30.009 67.035-67.044 0-32.691-23.421-59.839-54.395-65.757zm-38.018 26.201l-53.644 58.73c-2.235 2.449-5.247 3.308-8.153 2.932-3.299.939-6.919.179-9.502-2.664l-21.123-23.126c-3.889-4.246-3.889-11.12 0-15.366 3.88-4.246 10.164-4.246 14.035 0l15.831 17.333 48.567-53.17c3.871-4.228 10.128-4.228 13.99 0 3.869 4.246 3.869 11.121-.001 15.331z" fill="#39b29d"/></svg>