<svg xmlns="http://www.w3.org/2000/svg" viewBox="0 0 286.053 286.053"><path d="M129.162 204.922c10.62 10.62 16.672 11.031 27.72 0l81.212-83.242c7.625-12.846 1.386-23.349-13.856-23.349h-36.517V17.878C187.723 8.01 179.713 0 169.845 0H116.21c-9.869 0-17.878 8.01-17.878 17.878v80.453H61.806c-15.241 0-21.481 10.512-13.856 23.349l81.212 83.242zm139.014 36.436H17.878C8.01 241.358 0 249.367 0 259.236v8.939c0 9.878 8.01 17.878 17.878 17.878h250.297c9.869 0 17.878-8.001 17.878-17.878v-8.939c.001-9.869-8.009-17.878-17.877-17.878z" fill="#39b29d"/></svg>