<svg xmlns="http://www.w3.org/2000/svg" viewBox="-5893 -9558 53 38" fill="#E7E7E8"><path d="M-5842.718-9558h-16.525a2.5 2.5 0 0 0-2.718 2.208v13.422a2.5 2.5 0 0 0 2.718 2.208h7.909a12.734 12.734 0 0 1-3.011 8.442 16.472 16.472 0 0 1-6.811 4.142 2.057 2.057 0 0 0-1.348 2.962l1.957 3.356a3.009 3.009 0 0 0 3.539 1.077 31.633 31.633 0 0 0 9.116-4.8 18.586 18.586 0 0 0 6.213-8.031q1.68-4.477 1.68-12.222v-10.556a2.5 2.5 0 0 0-2.719-2.208zM-5887.236-9520.192a32.151 32.151 0 0 0 9.072-4.8 18.534 18.534 0 0 0 6.251-8q1.68-4.444 1.68-12.252v-10.548a2.5 2.5 0 0 0-2.718-2.208h-16.525a2.5 2.5 0 0 0-2.718 2.208v13.422a2.5 2.5 0 0 0 2.718 2.208h7.909a12.734 12.734 0 0 1-3.011 8.442 16.473 16.473 0 0 1-6.811 4.142 2.057 2.057 0 0 0-1.348 2.962l1.951 3.347a3.018 3.018 0 0 0 3.55 1.077z"/></svg>