<svg xmlns="http://www.w3.org/2000/svg" viewBox="0 0 504.123 504.123">
  
	<style>
		.circle{
			fill: #99A8C1;
		}
		.circle-half{
			fill: #70869B;
		}
		.question{
			fill: #1D2321;
		}
		.question-half{
			fill: #363D3B;
		}
	</style>
	
	<circle class='circle' cx="252.062" cy="252.062" r="252.062"/>

  <path class='circle-half' d="M73.83 73.823c98.43-98.43 258.032-98.43 356.462 0 98.43 98.438 98.446 258.032 0 356.478"/>
  
	<path class='question' d="M339.566 189.472c0 41.582-15.045 66.859-51.042 84.89-8.57 4.293-11.185 21.858-11.185 27.861 0 13.706-11.154 24.875-25.277 24.875-13.722 0-24.875-11.169-24.875-24.875 0-5.585.859-53.618 38.999-72.893 17.187-8.554 23.615-15.864 23.615-39.865 0-20.598-16.754-37.321-37.738-37.321-20.598 0-37.305 16.723-37.305 37.321 0 13.706-11.138 25.293-25.309 25.293-13.737 0-24.891-11.587-24.891-25.293 0-48.049 39.495-87.489 87.505-87.489 48.442-.001 87.503 39.446 87.503 87.496zm-62.227 187.809c0 13.706-11.154 24.86-25.277 24.86-13.722 0-24.875-11.154-24.875-24.86 0-14.155 11.154-25.309 24.875-25.309 14.123.008 25.277 11.162 25.277 25.309z"/>
  
	<path class='question-half' d="M252.062 101.975c-40.424 0-74.705 28.002-84.567 65.512l39.834 39.834c4.6-4.616 7.428-10.965 7.428-17.857 0-20.598 16.707-37.321 37.305-37.321 20.984 0 37.738 16.723 37.738 37.321 0 24.001-6.428 31.311-23.615 39.865-8.539 4.317-15.132 10.114-20.338 16.518l36.139 36.139c1.646-3.356 3.749-6.223 6.538-7.625 35.998-18.03 51.042-43.307 51.042-84.89 0-48.049-39.061-87.496-87.504-87.496z"/>
</svg>